<svg width="80" height="80" viewBox="0 0 80 80" fill="none" xmlns="http://www.w3.org/2000/svg">
<path fill-rule="evenodd" clip-rule="evenodd" d="M15.9788 76.5423C9.225 76.5423 3.75 71.0673 3.75 64.3136C3.75 58.9397 8.105 54.5847 13.4789 54.5847C14.6822 54.5847 15.8709 54.8033 16.993 55.2383C19.4519 56.1917 22.0984 54.3793 22.0984 51.742V23.4639H57.8709L54.0641 30.0578V33.4447L50.4244 31.8018L29.8484 41.0889C29.2934 41.3393 29.4733 42.175 30.0822 42.175H33.2194V62.2369H38.7792V51.79C38.7792 51.1876 39.2705 50.6962 39.873 50.6962H47.2483C47.8506 50.6962 48.342 51.1876 48.342 51.79V62.2369H67.6289V42.175H70.7663C71.3752 42.175 71.5552 41.3393 71 41.0889L62.4742 37.2406L64.4897 36.077L71.7719 23.4637H77.1875C78.0481 23.4637 78.75 24.1656 78.75 25.0262V74.9797C78.75 75.8403 78.0481 76.5422 77.1875 76.5422H15.9788V76.5423ZM57.1875 29.6478L63.2831 33.167L76.0419 11.0683L69.9463 7.54888L57.1875 29.6478ZM71.1931 5.38904L71.4623 4.92263C72.27 3.52372 74.0697 3.04138 75.4686 3.84919L76.4845 4.43575C77.8834 5.24341 78.3656 7.0431 77.558 8.442L77.2887 8.90841L71.1931 5.38904ZM61.4125 34.967L56.5639 32.1676V37.7662L61.4125 34.967ZM1.25 64.3136C1.25 57.5597 6.725 52.0847 13.4789 52.0847C15.0369 52.0847 16.5266 52.3762 17.8967 52.9073C18.7197 53.2264 19.5986 52.6244 19.5986 51.7419V11.0197C19.5986 10.5329 19.34 10.1161 18.9039 9.89982C17.2692 9.08919 15.4273 8.63325 13.4789 8.63325C6.725 8.6331 1.25 14.1081 1.25 20.862V64.3136ZM53.5934 45.7939C52.9911 45.7939 52.4997 46.2853 52.4997 46.8876V51.3587C52.4997 51.9611 52.9911 52.4525 53.5934 52.4525H60.5972C61.1995 52.4525 61.6909 51.9612 61.6909 51.3587V46.8876C61.6909 46.2853 61.1997 45.7939 60.5972 45.7939H53.5934ZM30.6191 64.7369C30.2753 64.7369 29.9941 65.0181 29.9941 65.3619V67.5793C29.9941 67.9231 30.2753 68.2043 30.6191 68.2043H70.2294C70.5731 68.2043 70.8544 67.9231 70.8544 67.5793V65.3619C70.8544 65.0181 70.5731 64.7369 70.2294 64.7369C57.0259 64.7369 43.8225 64.7369 30.6191 64.7369ZM36.5772 35.309L41.8234 32.9411V32.64C41.8234 32.1243 41.4016 31.7025 40.8859 31.7025H37.5147C36.9991 31.7025 36.5772 32.1243 36.5772 32.64V35.309Z" fill="#00B345"/>
</svg>
