<svg width="80" height="80" viewBox="0 0 80 80" fill="none" xmlns="http://www.w3.org/2000/svg">
<g clip-path="url(#clip0_54_184)">
<path d="M77.6544 78.202C75.3644 76.4473 72.887 74.9513 70.2673 73.7422L60.9027 69.4185C60.4395 70.7386 59.2285 73.6927 56.8353 76.6633C55.824 77.9188 54.7205 79.0315 53.5352 80.0001H80.0006L77.6544 78.202Z" fill="#00B345"/>
<path d="M23.1653 76.6633C20.7721 73.6927 19.5612 70.7386 19.0979 69.4185L9.73328 73.7422C7.11365 74.9513 4.63623 76.4473 2.34619 78.202L0 80.0001H26.4655C25.2808 79.0315 24.1766 77.9194 23.1653 76.6633Z" fill="#00B345"/>
<path d="M55.259 65.3118V64.7783C51.1288 68.2506 45.8053 70.3453 40.0015 70.3453C34.1976 70.3453 28.8741 68.2506 24.7445 64.7783V65.3118C24.7445 66.2236 24.2098 67.0592 23.3828 67.4407C23.3828 67.4407 26.9998 79.9999 40.0021 79.9999C53.0038 79.9999 56.6207 67.4407 56.6207 67.4407C55.7931 67.0592 55.259 66.2236 55.259 65.3118Z" fill="#00B345"/>
<path d="M40 65.6554C50.5115 65.6554 59.0625 57.1007 59.0625 46.585V38.1426H20.9375V46.585C20.9375 57.1007 29.4891 65.6554 40 65.6554Z" fill="#00B345"/>
<path d="M15.9928 33.4526H64.0055C65.3 33.4526 66.3492 32.4028 66.3492 31.1083C66.3492 29.8131 65.3 28.7633 64.0055 28.7633H62.0365V26.339C62.0365 18.7816 58.2157 12.1019 52.4058 8.12793V18.0211C52.4058 19.3163 51.3566 20.3661 50.062 20.3661C48.7681 20.3661 47.7183 19.3163 47.7183 18.0211V6.63684C47.7183 6.32495 47.7805 6.0271 47.8916 5.75488C46.1381 5.07983 44.2777 4.62268 42.3429 4.41699V20.8971C42.3429 22.1923 41.2931 23.2421 39.9991 23.2421C38.7046 23.2421 37.6554 22.1923 37.6554 20.8971V4.41699C35.7206 4.62207 33.8608 5.07983 32.1079 5.75427C32.2184 6.0271 32.2806 6.32434 32.2806 6.63684V18.0211C32.2806 19.3163 31.2314 20.3661 29.9369 20.3661C28.6423 20.3661 27.5931 19.3163 27.5931 18.0211V8.12671C21.7826 12.1007 17.9612 18.7816 17.9612 26.339V28.7633H15.9922C14.6982 28.7633 13.6484 29.8131 13.6484 31.1083C13.6484 32.4028 14.6982 33.4526 15.9928 33.4526Z" fill="#00B345"/>
<path d="M52.4048 6.63696C52.4048 5.3418 51.3556 4.29199 50.061 4.29199C49.079 4.29199 48.2385 4.89746 47.8906 5.75562C49.4934 6.37268 51.0071 7.17163 52.4048 8.12805V6.63696Z" fill="#00B345"/>
<path d="M29.9375 4.29199C28.6429 4.29199 27.5938 5.3418 27.5938 6.63696V8.12683C28.9915 7.17041 30.5051 6.37146 32.1079 5.75439C31.7594 4.89746 30.9196 4.29199 29.9375 4.29199Z" fill="#00B345"/>
<path d="M42.3438 4.41711V2.34497C42.3438 1.0498 41.2946 0 40 0C38.7054 0 37.6562 1.0498 37.6562 2.34497V4.41711C38.4265 4.33472 39.2084 4.29199 40 4.29199C40.7916 4.29199 41.5735 4.33472 42.3438 4.41711Z" fill="#00B345"/>
</g>
<defs>
<clipPath id="clip0_54_184">
<rect width="80" height="80" fill="white"/>
</clipPath>
</defs>
</svg>
