<svg id="Layer_1" data-name="Layer 1" xmlns="http://www.w3.org/2000/svg" viewBox="0 0 70.95 70.93"><defs><style>.cls-1{fill:#00b345;}</style></defs><title>2</title><path class="cls-1" d="M74,52.82a1.51,1.51,0,0,0-1.51,1.51v.77H69L61,26.36a9.17,9.17,0,0,0,1-4.2,9.35,9.35,0,0,0-5.81-8.63V8.07a3.54,3.54,0,0,0-7.08,0v5.46a9.35,9.35,0,0,0-5.8,8.63,9.21,9.21,0,0,0,1.06,4.26l-8,28.68h-4v-.77a1.51,1.51,0,0,0-3,0v4.54a1.51,1.51,0,1,0,3,0v-.75h3.14l-.36,1.31a9.17,9.17,0,0,0,4.94,10.75l-.94,3.37a1.51,1.51,0,0,0,2.91.82l4.51-16.24h4.3v.75a1.51,1.51,0,1,0,3,0v-.75h4.82l4.51,16.24a1.51,1.51,0,1,0,2.9-.82l-.94-3.37a9.17,9.17,0,0,0,5-10.75l-.36-1.31h2.63v.75a1.51,1.51,0,1,0,3,0V54.33A1.51,1.51,0,0,0,74,52.82ZM52.7,19.16a3,3,0,1,1-3,3A3,3,0,0,1,52.7,19.16ZM53.95,55.1v-.77a1.51,1.51,0,0,0-3,0v.77H47.46L52.7,36.22,57.93,55.1Z" transform="translate(-4.53 -4.53)"/><path class="cls-1" d="M56.36,61.14a4.52,4.52,0,0,1-7.56.43L45.36,74H60L56.47,61.14Z" transform="translate(-4.53 -4.53)"/><path class="cls-1" d="M30.92,49.8a4.54,4.54,0,0,1,3.4,1.52l6.78-24.47c0-.06,0-.12.06-.18H11.08l-.69,0a9.37,9.37,0,0,1-5.86-2.58V67.42A6.54,6.54,0,0,0,11.07,74H36.15a5.07,5.07,0,0,1,.12-1.16l.35-1.24a12.28,12.28,0,0,1-4.69-8.27,4.42,4.42,0,0,1-1,.12,4.54,4.54,0,0,1-4.53-4.53V54.33A4.54,4.54,0,0,1,30.92,49.8ZM22.34,32.71H35.91a1.51,1.51,0,0,1,0,3H22.34a1.51,1.51,0,1,1,0-3Zm-10.26,8h21.6a1.51,1.51,0,1,1,0,3H12.08a1.51,1.51,0,0,1,0-3ZM29.51,64.9a1.51,1.51,0,0,1,0,3H12.08a1.51,1.51,0,0,1,0-3ZM10.57,58.36a1.51,1.51,0,0,1,1.51-1.51H23.37a1.51,1.51,0,0,1,0,3H12.08A1.51,1.51,0,0,1,10.57,58.36Zm1.51-6.54a1.51,1.51,0,0,1,0-3H26.39a1.51,1.51,0,1,1,0,3Z" transform="translate(-4.53 -4.53)"/><path class="cls-1" d="M11.07,10.57h5.47V23.66H11.07a6.55,6.55,0,0,1,0-13.09Z" transform="translate(-4.53 -4.53)"/></svg>