<svg width="80" height="80" viewBox="0 0 80 80" fill="none" xmlns="http://www.w3.org/2000/svg">
<path d="M75.1562 6.48584H4.84375C4.05666 6.48673 3.30207 6.7998 2.74551 7.35635C2.18896 7.91291 1.87589 8.6675 1.875 9.45459V52.8665C1.87589 53.6535 2.18896 54.4081 2.74551 54.9647C3.30207 55.5212 4.05666 55.8343 4.84375 55.8352H28.65V64.4265C28.6494 64.8473 28.482 65.2507 28.1844 65.5483C27.8868 65.8459 27.4833 66.0134 27.0625 66.014H23.4375C22.7945 66.0146 22.1781 66.2702 21.7234 66.7249C21.2688 67.1795 21.0131 67.796 21.0125 68.4389V71.089C21.0131 71.7319 21.2688 72.3484 21.7234 72.803C22.1781 73.2577 22.7945 73.5133 23.4375 73.514H56.5625C57.2055 73.5133 57.8219 73.2577 58.2766 72.803C58.7312 72.3484 58.9869 71.7319 58.9875 71.089V68.4389C58.9869 67.796 58.7312 67.1795 58.2766 66.7249C57.8219 66.2702 57.2055 66.0146 56.5625 66.014H52.9375C52.5167 66.0134 52.1132 65.8459 51.8156 65.5483C51.518 65.2507 51.3506 64.8473 51.35 64.4265V55.8352H75.1562C75.9433 55.8343 76.6979 55.5212 77.2545 54.9647C77.811 54.4081 78.1241 53.6535 78.125 52.8665V9.45459C78.1241 8.6675 77.811 7.91291 77.2545 7.35635C76.6979 6.7998 75.9433 6.48673 75.1562 6.48584ZM56.4875 68.439V71.014L23.5125 71.089L23.5 68.514L56.4875 68.439ZM75.625 52.8665C75.625 52.9908 75.5756 53.11 75.4877 53.1979C75.3998 53.2858 75.2806 53.3352 75.1562 53.3352H4.84375C4.71944 53.3352 4.60023 53.2858 4.51233 53.1979C4.42443 53.11 4.37503 52.9908 4.375 52.8665V9.45459C4.37503 9.33028 4.42443 9.21107 4.51233 9.12317C4.60023 9.03527 4.71944 8.98587 4.84375 8.98584H75.1562C75.2806 8.98587 75.3998 9.03527 75.4877 9.12317C75.5756 9.21107 75.625 9.33028 75.625 9.45459V52.8665ZM67.7771 43.3352H12.2229C11.5783 43.3361 10.9603 43.5926 10.5044 44.0484C10.0486 44.5042 9.79214 45.1222 9.79125 45.7669V48.4036C9.79214 49.0482 10.0486 49.6662 10.5044 50.122C10.9603 50.5778 11.5782 50.8343 12.2229 50.8352H67.7771C68.4217 50.8343 69.0397 50.5778 69.4956 50.122C69.9514 49.6662 70.2079 49.0482 70.2087 48.4036V45.7669C70.2079 45.1222 69.9514 44.5042 69.4956 44.0484C69.0397 43.5926 68.4217 43.3361 67.7771 43.3352ZM67.7087 48.3352L24.0625 48.3891V45.8206L67.7087 45.7669V48.3352ZM25.8716 30.9939C25.7887 30.9939 25.7092 31.0268 25.6506 31.0854C25.592 31.144 25.5591 31.2235 25.5591 31.3064C25.5591 31.3893 25.592 31.4688 25.6506 31.5274C25.7092 31.586 25.7887 31.6189 25.8716 31.6189H27.125V33.1514C27.1265 33.3681 27.1836 33.5807 27.2908 33.769C27.3981 33.9572 27.5519 34.1147 27.7375 34.2265L39.3625 41.0765C39.5561 41.1893 39.7759 41.2496 40 41.2515C40.2189 41.2524 40.4343 41.1964 40.625 41.089C40.6354 41.0829 40.6429 41.0736 40.6531 41.0672L52.2625 34.2265C52.4481 34.1148 52.6019 33.9572 52.7092 33.769C52.8164 33.5807 52.8735 33.3681 52.875 33.1514V19.4721L52.8784 19.4461C52.8784 19.2286 52.8217 19.0149 52.7138 18.826C52.6059 18.6372 52.4506 18.4798 52.2632 18.3694L40.6348 11.5176C40.4426 11.4037 40.2234 11.3436 40 11.3436C39.7766 11.3436 39.5574 11.4037 39.3652 11.5176L27.7368 18.3694C27.5494 18.4798 27.3941 18.6372 27.2862 18.826C27.1783 19.0149 27.1216 19.2286 27.1216 19.4461L27.125 19.4721V20.7937H25.8716C25.7887 20.7937 25.7092 20.8266 25.6506 20.8852C25.592 20.9438 25.5591 21.0233 25.5591 21.1062C25.5591 21.189 25.592 21.2685 25.6506 21.3271C25.7092 21.3857 25.7887 21.4187 25.8716 21.4187H27.125V25.8938H25.8716C25.7887 25.8938 25.7092 25.9267 25.6506 25.9853C25.592 26.0439 25.5591 26.1234 25.5591 26.2063C25.5591 26.2891 25.592 26.3686 25.6506 26.4272C25.7092 26.4858 25.7887 26.5188 25.8716 26.5188H27.125V30.9939H25.8716ZM50.375 32.439L41.25 37.814V27.012L50.375 21.6353V32.439ZM40 14.0457L49.1663 19.4461L40 24.8464L30.8337 19.4461L40 14.0457ZM13.0591 21.1062C13.0592 21.0233 13.0922 20.9439 13.1508 20.8854C13.2094 20.8268 13.2888 20.7938 13.3716 20.7937H15.8716C15.9545 20.7937 16.034 20.8266 16.0926 20.8852C16.1512 20.9438 16.1841 21.0233 16.1841 21.1062C16.1841 21.189 16.1512 21.2685 16.0926 21.3271C16.034 21.3857 15.9545 21.4187 15.8716 21.4187H13.3716C13.2888 21.4185 13.2094 21.3855 13.1508 21.3269C13.0922 21.2684 13.0592 21.189 13.0591 21.1062ZM19.3091 21.1062C19.3092 21.0233 19.3422 20.9439 19.4008 20.8854C19.4594 20.8268 19.5388 20.7938 19.6216 20.7937H22.1216C22.2045 20.7937 22.284 20.8266 22.3426 20.8852C22.4012 20.9438 22.4341 21.0233 22.4341 21.1062C22.4341 21.189 22.4012 21.2685 22.3426 21.3271C22.284 21.3857 22.2045 21.4187 22.1216 21.4187H19.6216C19.5388 21.4185 19.4594 21.3855 19.4008 21.3269C19.3422 21.2684 19.3092 21.189 19.3091 21.1062ZM19.3091 26.2063C19.3092 26.1234 19.3422 26.044 19.4008 25.9855C19.4594 25.9269 19.5388 25.8939 19.6216 25.8938H22.1216C22.2045 25.8938 22.284 25.9267 22.3426 25.9853C22.4012 26.0439 22.4341 26.1234 22.4341 26.2063C22.4341 26.2891 22.4012 26.3686 22.3426 26.4272C22.284 26.4858 22.2045 26.5188 22.1216 26.5188H19.6216C19.5388 26.5186 19.4594 26.4856 19.4008 26.4271C19.3422 26.3685 19.3093 26.2891 19.3091 26.2063Z" fill="#00B345"/>
</svg>
