<?xml version="1.0" encoding="utf-8"?>
<!-- Generator: Adobe Illustrator 21.0.0, SVG Export Plug-In . SVG Version: 6.00 Build 0)  -->
<svg version="1.1" id="Layer_1" xmlns="http://www.w3.org/2000/svg" xmlns:xlink="http://www.w3.org/1999/xlink" x="0px" y="0px"
	 viewBox="0 0 200 200" style="enable-background:new 0 0 200 200;" xml:space="preserve">
<style type="text/css">
	.st0{fill:#FFFFFF;}
</style>
<g>
	<g>
		<path d="M195.8,99.2c0,0.1,0,0.3,0,0.4c0,1.2,0,2.3-0.1,3.5c-0.1,2-0.2,4-0.4,5.9c0,0.3-0.1,0.6-0.1,0.8c-0.2,2.2-0.5,4.3-0.9,6.4
			c-0.1,0.5-0.2,0.9-0.3,1.4c-0.4,1.8-0.8,3.6-1.2,5.4c-0.2,0.8-0.4,1.6-0.7,2.4c-0.5,1.9-1.1,3.7-1.7,5.5c0,0.1-0.1,0.2-0.1,0.3
			c-0.6,1.6-1.2,3.1-1.8,4.7c-0.5,1.3-1.1,2.6-1.7,3.8c-0.6,1.2-1.1,2.4-1.8,3.5c-0.3,0.6-0.6,1.2-1,1.8c-0.5,1-1.1,1.9-1.6,2.8
			c-1,1.7-2,3.3-3.1,4.9c-0.4,0.6-0.9,1.2-1.3,1.9c-0.4,0.5-0.7,1-1.1,1.5c-0.4,0.5-0.7,1-1.1,1.4c-1.9,2.5-3.9,4.8-6.1,7.1
			c-0.1,0.1-0.3,0.3-0.4,0.4c-0.8,0.9-1.7,1.7-2.6,2.6c0,0,0,0-0.1,0.1c-2.5,2.4-5.1,4.6-7.8,6.8c-0.3,0.3-0.6,0.5-1,0.7
			c-0.7,0.5-1.5,1.1-2.2,1.6c-0.5,0.3-1,0.7-1.4,1c-3.4,2.4-7,4.5-10.7,6.4c-0.9,0.5-1.9,0.9-2.8,1.4c-1.4,0.7-2.8,1.3-4.3,1.9
			c-1.2,0.5-2.4,1-3.7,1.4c-1.1,0.4-2.1,0.7-3.2,1.1c-1.5,0.5-3,0.9-4.6,1.4c-0.8,0.2-1.7,0.4-2.5,0.6c-1.8,0.4-3.6,0.8-5.5,1.1
			c-0.5,0.1-0.9,0.2-1.4,0.2c-2.1,0.3-4.2,0.6-6.3,0.8c0,0,0,0,0,0c-2.3,0.2-4.6,0.4-6.9,0.4c-0.1,0-0.2,0-0.2,0c-0.7,0-1.4,0-2.1,0
			c-0.1,0-0.2,0-0.4,0c-1.8,0-3.6-0.1-5.3-0.2c-1-0.1-2-0.1-3-0.2c-6.9-0.6-13.6-2-20-4c-4.1-1.3-8.1-2.8-11.9-4.7
			C27.1,170.4,4.7,137.4,4.7,99.2c0-52.8,42.8-95.6,95.6-95.6c38.7,0,72.1,23,87.1,56.1c1.9,4.3,3.6,8.7,4.9,13.3
			c0.4,1.3,0.7,2.5,1,3.8c0.3,1.4,0.6,2.8,0.9,4.2c0.4,2,0.7,4,1,6c0.2,1.8,0.4,3.6,0.5,5.4c0,0.4,0.1,0.8,0.1,1.1
			C195.8,95.5,195.8,97.3,195.8,99.2"/>
		<path d="M188.8,99c0,0.1,0,0.2,0,0.4c0,1.1,0,2.1-0.1,3.2c-0.1,1.8-0.2,3.7-0.4,5.5c0,0.3-0.1,0.5-0.1,0.8c-0.2,2-0.5,4-0.9,5.9
			c-0.1,0.4-0.2,0.9-0.2,1.3c-0.3,1.7-0.7,3.4-1.1,5c-0.2,0.8-0.4,1.5-0.6,2.3c-0.5,1.7-1,3.4-1.6,5.1c0,0.1-0.1,0.2-0.1,0.3
			c-0.5,1.5-1.1,2.9-1.7,4.3c-0.5,1.2-1,2.4-1.6,3.5c-0.5,1.1-1.1,2.2-1.6,3.3c-0.3,0.6-0.6,1.1-0.9,1.7c-0.5,0.9-1,1.8-1.5,2.6
			c-0.9,1.6-1.9,3.1-2.9,4.6c-0.4,0.6-0.8,1.1-1.2,1.7c-0.3,0.5-0.7,0.9-1,1.4c-0.3,0.4-0.7,0.9-1,1.3c-1.8,2.3-3.6,4.5-5.6,6.6
			c-0.1,0.1-0.2,0.3-0.4,0.4c-0.8,0.8-1.6,1.6-2.4,2.4c0,0,0,0-0.1,0.1c-2.3,2.2-4.7,4.3-7.2,6.3c-0.3,0.2-0.6,0.5-0.9,0.7
			c-0.7,0.5-1.3,1-2,1.5c-0.4,0.3-0.9,0.6-1.3,0.9c-3.2,2.2-6.5,4.2-9.9,5.9c-0.9,0.4-1.7,0.9-2.6,1.3c-1.3,0.6-2.6,1.2-4,1.7
			c-1.1,0.5-2.3,0.9-3.4,1.3c-1,0.4-2,0.7-3,1c-1.4,0.5-2.8,0.9-4.2,1.3c-0.8,0.2-1.5,0.4-2.3,0.6c-1.7,0.4-3.4,0.8-5.1,1.1
			c-0.4,0.1-0.9,0.2-1.3,0.2c-1.9,0.3-3.9,0.6-5.9,0.8c0,0,0,0,0,0c-2.1,0.2-4.2,0.3-6.4,0.4c-0.1,0-0.2,0-0.2,0c-0.6,0-1.3,0-1.9,0
			c-0.1,0-0.2,0-0.3,0c-1.7,0-3.3-0.1-4.9-0.2c-0.9-0.1-1.9-0.1-2.8-0.2c-6.4-0.6-12.6-1.8-18.6-3.7c-3.8-1.2-7.5-2.6-11-4.3
			C32.4,165.1,11.6,134.5,11.6,99c0-49,39.7-88.6,88.6-88.6c35.9,0,66.8,21.3,80.7,52c1.8,4,3.3,8.1,4.5,12.4
			c0.3,1.2,0.6,2.3,0.9,3.5c0.3,1.3,0.6,2.6,0.8,3.9c0.4,1.8,0.6,3.7,0.9,5.6c0.2,1.6,0.4,3.3,0.5,5c0,0.3,0,0.7,0.1,1
			C188.8,95.6,188.8,97.3,188.8,99"/>
	</g>
	<polygon class="st0" points="67.6,149.1 67.6,85.4 62.7,88.3 62.7,152 62.9,151.9 	"/>
	<polygon class="st0" points="75.8,144.1 75.8,80.4 71,83.4 71,147 71.2,146.9 	"/>
	<polygon class="st0" points="84.1,139.2 84.1,75.5 79.2,78.4 79.2,142.1 79.4,142 	"/>
	<polygon class="st0" points="87.5,137.1 87.7,137 92.4,134.2 92.4,70.5 87.5,73.4 	"/>
	<path class="st0" d="M62.7,179c3.6,1.7,7.2,3.1,11,4.3c6,1.9,12.2,3.1,18.6,3.7v-49.2l-29.6,17.8V179z"/>
	<path class="st0" d="M172.6,89.5v-2l-28.7-16.8v-4.4l45,26.3c-0.1-1.7-0.3-3.3-0.5-5c-0.2-1.9-0.5-3.7-0.9-5.6l-14.9-8.7v-2
		l-28.7-16.8v-4.4l41.8,24.5c-1.2-4.3-2.7-8.4-4.5-12.4l-37.3-22.4L95.2,69v118.2c1.6,0.1,3.3,0.1,4.9,0.2c0.1,0,0.2,0,0.3,0
		c0.6,0,1.3,0,1.9,0V75.1l6.6-4V187c2-0.2,3.9-0.4,5.9-0.8c0.4-0.1,0.9-0.1,1.3-0.2V66.8l7.4-4.4v122c1.4-0.4,2.8-0.8,4.2-1.3
		c1-0.3,2-0.7,3-1V58l7.4-4.4V179c0.9-0.4,1.7-0.8,2.6-1.3c3.4-1.8,6.8-3.7,9.9-5.9l-6.8-4v-4.4l10.1,5.9c0.3-0.2,0.6-0.5,0.9-0.7
		c2.5-2,4.9-4,7.2-6.3c0,0,0,0,0.1-0.1l-18.3-10.7v-4.4l21.1,12.3c2-2.1,3.9-4.3,5.6-6.6c0.3-0.4,0.7-0.9,1-1.3l-27.7-16.2v-4.4
		l29.9,17.5c1-1.5,2-3,2.9-4.6c0.5-0.9,1-1.7,1.5-2.6l-5.6-3.3v-2l-28.7-16.8v-4.4l36.8,21.6c0.5-1.2,1.1-2.3,1.6-3.5
		c0.6-1.4,1.2-2.9,1.7-4.3l-11.3-6.6v-2l-28.7-16.8v-4.4l41.8,24.5c0.2-0.8,0.4-1.5,0.6-2.3c0.4-1.7,0.8-3.3,1.1-5
		c0.1-0.4,0.2-0.9,0.2-1.3l-15.1-8.8v-2l-28.7-16.8v-4.4l44.6,26.1c0-0.3,0.1-0.5,0.1-0.8c0.2-1.8,0.3-3.6,0.4-5.5
		c0-1.1,0.1-2.1,0.1-3.2L172.6,89.5z"/>
	<path d="M140.5,126.1L140.5,126.1c0-0.5,0-1,0-1.4c0,0,0,0,0,0c0,0,0,0,0,0c0-0.5-0.1-0.9-0.1-1.4c0,0,0,0,0,0
		c-0.1-0.5-0.1-0.9-0.2-1.4c0,0,0,0,0,0c-0.1-0.4-0.2-0.8-0.3-1.2c0-0.1-0.1-0.3-0.1-0.4c-0.1-0.3-0.2-0.6-0.3-1c0,0,0-0.1,0-0.1
		c-2.9-9.1-11.4-14.2-20.2-14c-0.2,0-0.3,0-0.5,0c-0.3,0-0.5,0-0.8,0c-0.3,0-0.6,0.1-0.9,0.1c-0.2,0-0.3,0-0.5,0.1c0,0,0,0-0.1,0
		c-0.4,0.1-0.8,0.1-1.1,0.2c0,0,0,0-0.1,0c-0.3,0.1-0.6,0.1-0.9,0.2c-0.5,0.1-1,0.3-1.4,0.4c-0.3,0.1-0.7,0.2-1,0.4c0,0-0.1,0-0.1,0
		c-0.3,0.1-0.6,0.2-0.9,0.4c0,0-0.1,0-0.1,0c-0.7,0.3-1.3,0.6-1.9,1c0,0-0.1,0-0.1,0.1c-0.1,0.1-0.3,0.2-0.4,0.2
		c-0.1,0-0.1,0.1-0.2,0.1c-0.2,0.1-0.4,0.2-0.5,0.4c0,0-0.1,0.1-0.1,0.1c-0.2,0.1-0.4,0.3-0.6,0.4c0,0,0,0,0,0
		c-0.1,0.1-0.3,0.2-0.4,0.3c-0.3,0.3-0.6,0.5-0.9,0.8c-0.1,0.1-0.3,0.2-0.4,0.4c-0.2,0.2-0.3,0.3-0.5,0.5c-3.1,3.1-5.2,7.2-5.9,11.4
		c0,0.1,0,0.3-0.1,0.4c0,0.2-0.1,0.4-0.1,0.6c0,0.4-0.1,0.8-0.1,1.1c0,0.2,0,0.3,0,0.5v0v0c0,0.3,0,0.5,0,0.8v0v0c0,0.3,0,0.5,0,0.8
		v0v0c0,0.2,0,0.3,0,0.5c0,0.4,0.1,0.8,0.1,1.1c0,0.2,0.1,0.4,0.1,0.6c0,0.1,0,0.3,0.1,0.4c0.7,4.2,2.8,8.2,5.9,11.4
		c0.2,0.2,0.3,0.3,0.5,0.5c0.1,0.1,0.3,0.3,0.4,0.4c0.3,0.3,0.6,0.5,0.9,0.8c0.3,0.3,0.7,0.5,1,0.8c0,0,0.1,0.1,0.1,0.1
		c0.2,0.1,0.4,0.3,0.6,0.4c0.1,0,0.1,0.1,0.2,0.1c0.1,0.1,0.3,0.2,0.4,0.3c0,0,0,0,0.1,0c0.6,0.4,1.3,0.7,1.9,1c0,0,0.1,0,0.1,0.1
		c0.3,0.1,0.6,0.3,0.9,0.4c0,0,0.1,0,0.1,0c0.3,0.1,0.7,0.3,1,0.4c0.5,0.2,0.9,0.3,1.4,0.4c0.3,0.1,0.6,0.2,0.9,0.2c0,0,0,0,0.1,0
		c0.4,0.1,0.8,0.1,1.2,0.2c0,0,0,0,0.1,0c9.6,1.4,19.6-3.8,22.8-13.8c0,0,0-0.1,0-0.1c0.1-0.3,0.2-0.6,0.3-1c0-0.1,0.1-0.3,0.1-0.4
		c0.1-0.4,0.2-0.8,0.3-1.2c0,0,0,0,0,0c0.1-0.4,0.2-0.9,0.2-1.4c0,0,0,0,0,0c0.1-0.5,0.1-0.9,0.1-1.4c0,0,0,0,0,0c0,0,0,0,0,0
		C140.5,127.1,140.5,126.6,140.5,126.1L140.5,126.1z M116.1,129.7c-0.3,0.9-0.8,1.7-1.6,2.3c-0.7,0.6-1.6,1-2.6,1.1
		c-1,0.1-2.1-0.1-3-0.6c-0.1-0.1-0.3-0.2-0.4-0.3c0,0.2,0,0.5,0,0.7c-0.7,0-1.4,0-2.1,0c0-4.7,0-9.3,0-14c0.7,0,1.4,0,2.1,0
		c0,1.7,0,3.4,0,5.1c0.1-0.1,0.3-0.2,0.4-0.3c1.1-0.7,2.5-0.9,3.8-0.5c1.6,0.4,2.9,1.7,3.4,3.2c0,0,0,0,0,0.1
		c0.2,0.6,0.3,1.2,0.3,1.8C116.4,128.7,116.3,129.2,116.1,129.7 M123.5,133.1c-1.3,0-2.6-0.5-3.5-1.5c-0.3-0.3-0.5-0.6-0.8-1
		c-0.2-0.4-0.4-0.8-0.5-1.3c-0.1-0.5-0.2-1-0.2-1.5c0-1.6,0-3.1,0-4.7h0V121h0c0-0.7,0-1.4,0-2.1c0.7,0,1.4,0,2.1,0
		c0,0.7,0,1.4,0,2.1v0h2.4v2.1h-2.4v0l0,0c0,1.7,0,3.3,0,5c0,0.8,0.3,1.5,0.9,2c0.5,0.5,1.3,0.8,2,0.8
		C123.5,131.7,123.5,132.4,123.5,133.1 M134.9,132.9c-0.7,0-1.4,0-2.1,0c0-0.2,0-0.5,0-0.7c-0.6,0.4-1.3,0.7-2.1,0.9
		c-0.6,0.1-1.2,0.1-1.8,0c-1.2-0.2-2.2-0.9-3-1.9c-0.3-0.5-0.6-1-0.8-1.5c-0.4-1.3-0.3-2.8,0.4-4.1c0.6-1.2,1.7-2.1,3-2.4
		c0.7-0.2,1.4-0.2,2.1-0.1c0.5,0.1,1,0.2,1.4,0.5c0.2,0.1,0.4,0.3,0.7,0.4c0-0.3,0-0.6,0-0.8c0.7,0,1.4,0,2.1,0
		C134.9,126.4,134.9,129.6,134.9,132.9"/>
	<path d="M131.4,125.6c-0.2-0.1-0.5-0.2-0.7-0.3c-0.4-0.1-0.8-0.1-1.2-0.1c-0.6,0.1-1.2,0.4-1.7,0.9c-0.5,0.5-0.7,1.2-0.8,1.8
		c0,0.7,0.1,1.4,0.6,2c0.3,0.4,0.7,0.7,1.2,1c0.6,0.2,1.3,0.3,1.9,0.1c0.1,0,0.2-0.1,0.3-0.1c0.8-0.3,1.4-1,1.6-1.8
		C133.1,127.7,132.5,126.3,131.4,125.6"/>
	<path d="M112.8,125.5c-0.5-0.3-1.2-0.4-1.8-0.3c-0.6,0.1-1.2,0.4-1.7,0.9c-0.1,0.2-0.3,0.3-0.4,0.5c-0.3,0.4-0.4,1-0.4,1.5
		c0,0.5,0.1,1.1,0.4,1.6c0,0,0,0,0,0c0.4,0.7,1.2,1.3,2,1.4c0.7,0.1,1.3,0,1.9-0.4c0.4-0.3,0.8-0.7,1.1-1.1c0.2-0.4,0.4-0.9,0.4-1.4
		c0-0.4-0.1-0.9-0.3-1.2C113.8,126.2,113.3,125.8,112.8,125.5"/>
	<path class="st0" d="M138.1,109.9c-1.1-1.3-2.4-2.5-3.9-3.5c-1.1-0.8-2.3-1.5-3.5-2.1c-2.3-1.1-4.7-1.9-7.2-2.2
		c-2.4-0.4-4.9-0.4-7.4,0c-1.4,0.2-2.8,0.5-4.2,1c-1,0.3-2,0.7-3,1.2c-2.5,1.2-4.7,2.8-6.6,4.7c-1,1-1.9,2.1-2.7,3.2
		c-2.9,4.1-4.5,9.1-4.5,14c0,4.9,1.6,9.8,4.5,14c0.8,1.2,1.7,2.2,2.7,3.2c1.9,2,4.2,3.6,6.6,4.7c1,0.5,2,0.9,3,1.2
		c1.4,0.4,2.8,0.8,4.2,1c1.2,0.2,2.4,0.3,3.6,0.3c1.3,0,2.5-0.1,3.8-0.3c2.5-0.4,4.9-1.1,7.2-2.2c1.2-0.6,2.4-1.3,3.5-2.1
		c1.4-1,2.7-2.2,3.9-3.5c3.8-4.3,5.8-9.9,5.8-16.2C143.9,119.8,141.9,114.2,138.1,109.9 M140.5,127.4c0,0.1,0,0.1,0,0.2c0,0,0,0,0,0
		c0,0,0,0,0,0c0,0.1,0,0.1,0,0.2c0,0,0,0.1,0,0.1c0,0.1,0,0.1,0,0.2c0,0,0,0,0,0c0,0,0,0.1,0,0.1c0,0,0,0.1,0,0.1c0,0.1,0,0.1,0,0.2
		c0,0.1,0,0.2,0,0.3c0,0.1,0,0.1,0,0.2c0,0,0,0,0,0c0,0,0,0.1,0,0.1c0,0.2,0,0.4-0.1,0.6c0,0.1,0,0.2,0,0.3c0,0.1,0,0.2,0,0.3
		c0,0,0,0.1,0,0.1c0,0,0,0,0,0c0,0,0,0.1,0,0.1c0,0.1,0,0.2-0.1,0.3c0,0.1,0,0.2-0.1,0.3c0,0.1,0,0.2-0.1,0.3c0,0.1,0,0.1-0.1,0.2
		c0,0.1-0.1,0.3-0.1,0.4c-0.1,0.3-0.2,0.6-0.3,1c0,0,0,0.1,0,0.1c-0.4,1.1-0.8,2.2-1.3,3.3c-1.4,2.7-3.4,4.9-5.8,6.8
		c-0.5,0.4-1,0.7-1.5,1c-2.2,1.3-4.7,2.2-7.2,2.7c-2.2,0.4-4.5,0.4-6.7,0.1c0,0,0,0,0,0c0,0-0.1,0-0.1,0c0,0,0,0-0.1,0
		c-0.1,0-0.2,0-0.2,0c-0.1,0-0.1,0-0.2,0c-0.1,0-0.1,0-0.2,0c0,0-0.1,0-0.1,0c0,0,0,0,0,0c-0.1,0-0.2,0-0.3,0c0,0,0,0,0,0
		c0,0,0,0,0,0c0,0,0,0,0,0c0,0-0.1,0-0.1,0c0,0,0,0-0.1,0c-0.1,0-0.1,0-0.2,0c-0.1,0-0.2,0-0.3-0.1c-0.1,0-0.2,0-0.3-0.1
		c0,0-0.1,0-0.1,0c-0.5-0.1-1-0.3-1.4-0.4c-0.3-0.1-0.7-0.2-1-0.4c0,0-0.1,0-0.1,0c-0.3-0.1-0.6-0.2-0.9-0.4c0,0-0.1,0-0.1-0.1
		c-0.7-0.3-1.3-0.6-1.9-1c0,0,0,0-0.1,0c-0.1-0.1-0.2-0.1-0.4-0.2c0,0,0,0-0.1,0c-0.1,0-0.1-0.1-0.2-0.1c0,0-0.1-0.1-0.1-0.1
		c-0.1-0.1-0.2-0.2-0.3-0.2c0,0-0.1,0-0.1-0.1c0,0-0.1-0.1-0.1-0.1c0,0,0,0-0.1,0c0,0,0,0,0,0c-0.1,0-0.1-0.1-0.2-0.1
		c0,0-0.1,0-0.1-0.1c-0.1,0-0.1-0.1-0.2-0.1c0,0-0.1-0.1-0.1-0.1c-0.1-0.1-0.2-0.2-0.3-0.2c0,0-0.1-0.1-0.1-0.1
		c-0.3-0.3-0.6-0.5-0.9-0.8c-0.1-0.1-0.3-0.3-0.4-0.4c-0.2-0.1-0.3-0.3-0.5-0.5c-0.9-0.9-1.7-1.8-2.4-2.9c-1.8-2.5-3-5.4-3.5-8.5
		c0-0.1,0-0.3-0.1-0.4c0-0.2-0.1-0.4-0.1-0.6c0-0.4-0.1-0.8-0.1-1.1c0,0,0-0.1,0-0.1c0-0.1,0-0.3,0-0.4v0v0c0-0.1,0-0.3,0-0.4
		c0-0.1,0-0.3,0-0.4v0v0c0-0.1,0-0.3,0-0.4c0-0.1,0-0.3,0-0.4v0v0c0-0.1,0-0.3,0-0.4c0,0,0-0.1,0-0.1c0-0.4,0.1-0.8,0.1-1.1
		c0-0.2,0.1-0.4,0.1-0.6c0-0.1,0-0.3,0.1-0.4c0.5-3.1,1.7-6,3.5-8.5c0.7-1,1.5-2,2.4-2.9c0.2-0.2,0.3-0.3,0.5-0.5
		c0.1-0.1,0.3-0.3,0.4-0.4c0.3-0.3,0.6-0.5,0.9-0.8c0,0,0.1-0.1,0.1-0.1c0.1-0.1,0.2-0.2,0.3-0.2c0,0,0,0,0,0c0,0,0,0,0,0
		c0,0,0,0,0.1,0c0.1-0.1,0.1-0.1,0.2-0.1c0,0,0.1,0,0.1-0.1c0.1,0,0.1-0.1,0.2-0.1c0,0,0,0,0,0c0,0,0,0,0,0c0,0,0.1-0.1,0.1-0.1
		c0,0,0.1,0,0.1-0.1c0.1-0.1,0.2-0.2,0.3-0.2c0,0,0.1,0,0.1-0.1c0.1,0,0.1-0.1,0.2-0.1c0,0,0,0,0.1,0c0.1-0.1,0.2-0.1,0.3-0.2
		c0,0,0.1,0,0.1-0.1c0.6-0.4,1.3-0.7,1.9-1c0,0,0.1,0,0.1,0c0.3-0.1,0.6-0.3,0.9-0.4c0,0,0.1,0,0.1,0c0.3-0.1,0.7-0.3,1-0.4
		c0.5-0.2,0.9-0.3,1.4-0.4c0,0,0.1,0,0.1,0c0.1,0,0.2,0,0.3-0.1c0.1,0,0.2,0,0.3-0.1c0.1,0,0.1,0,0.2,0c0,0,0,0,0.1,0c0,0,0,0,0.1,0
		c0,0,0,0,0,0c0,0,0,0,0,0c0,0,0,0,0,0c0.1,0,0.2,0,0.3,0c0,0,0,0,0,0c0,0,0.1,0,0.1,0c0.1,0,0.1,0,0.2,0c0.1,0,0.1,0,0.2,0
		c0.1,0,0.2,0,0.2,0c0,0,0,0,0.1,0c0,0,0.1,0,0.1,0c0.1,0,0.2,0,0.3,0c0.3,0,0.6-0.1,0.9-0.1c0.3,0,0.5,0,0.8,0c0.2,0,0.3,0,0.5,0
		c0.2,0,0.3,0,0.5,0c1.3,0,2.5,0.1,3.8,0.3c2.5,0.4,5,1.3,7.2,2.7c0.5,0.3,1,0.7,1.5,1c2.5,1.8,4.5,4.1,5.8,6.8c0.5,1,1,2.1,1.3,3.3
		c0,0,0,0.1,0,0.1c0.1,0.3,0.2,0.6,0.3,1c0,0.1,0.1,0.3,0.1,0.4c0,0.1,0,0.1,0.1,0.2c0,0.1,0,0.2,0.1,0.3c0,0.1,0,0.2,0.1,0.3
		c0,0.1,0,0.2,0.1,0.3c0,0,0,0.1,0,0.1c0,0,0,0,0,0c0,0,0,0.1,0,0.1c0,0.1,0,0.2,0,0.3c0,0.1,0,0.2,0,0.3c0,0.2,0.1,0.4,0.1,0.6
		c0,0,0,0.1,0,0.1c0,0,0,0,0,0c0,0.1,0,0.1,0,0.2c0,0.1,0,0.2,0,0.3c0,0.1,0,0.1,0,0.2c0,0,0,0.1,0,0.1c0,0,0,0.1,0,0.1c0,0,0,0,0,0
		c0,0.1,0,0.1,0,0.2c0,0,0,0.1,0,0.1c0,0.1,0,0.1,0,0.2c0,0,0,0,0,0c0,0,0,0,0,0c0,0.1,0,0.1,0,0.2c0,0.2,0,0.4,0,0.6
		c0,0.2,0,0.4,0,0.6v0v0c0,0.2,0,0.4,0,0.6C140.5,127,140.5,127.2,140.5,127.4"/>
	<path class="st0" d="M116.1,126.4c-0.5-1.5-1.8-2.8-3.4-3.2c-1.3-0.4-2.7-0.2-3.8,0.5c-0.1,0.1-0.3,0.2-0.4,0.3c0-1.7,0-3.4,0-5.1
		c-0.7,0-1.4,0-2.1,0c0,4.7,0,9.3,0,14c0.7,0,1.4,0,2.1,0c0-0.2,0-0.5,0-0.7c0.1,0.1,0.3,0.2,0.4,0.3c0.9,0.5,2,0.8,3,0.6
		c0.9-0.1,1.9-0.5,2.6-1.1c0.7-0.6,1.3-1.4,1.6-2.3c0.1-0.4,0.2-0.9,0.3-1.4C116.4,127.7,116.3,127.1,116.1,126.4
		C116.1,126.5,116.1,126.5,116.1,126.4 M114,129.5c-0.3,0.4-0.6,0.8-1.1,1.1c-0.6,0.4-1.3,0.5-1.9,0.4c-0.8-0.1-1.6-0.7-2-1.4
		c0,0,0,0,0,0c-0.3-0.5-0.4-1-0.4-1.6c0-0.5,0.2-1,0.4-1.5c0.1-0.2,0.2-0.3,0.4-0.5c0.4-0.5,1-0.8,1.7-0.9c0.6-0.1,1.2,0,1.8,0.3
		c0.5,0.3,1,0.8,1.3,1.4c0.2,0.4,0.3,0.8,0.3,1.2C114.3,128.6,114.2,129.1,114,129.5"/>
	<path class="st0" d="M132.8,123.9c-0.2-0.1-0.4-0.3-0.7-0.4c-0.4-0.2-0.9-0.4-1.4-0.5c-0.7-0.1-1.5-0.1-2.1,0.1
		c-1.3,0.4-2.4,1.2-3,2.4c-0.7,1.2-0.8,2.7-0.4,4.1c0.2,0.5,0.4,1.1,0.8,1.5c0.7,1,1.8,1.6,3,1.9c0.6,0.1,1.2,0.1,1.8,0
		c0.7-0.1,1.5-0.4,2.1-0.9c0,0.2,0,0.5,0,0.7c0.7,0,1.4,0,2.1,0c0-3.3,0-6.5,0-9.8c-0.7,0-1.4,0-2.1,0
		C132.8,123.4,132.8,123.7,132.8,123.9 M132.6,129c-0.3,0.8-0.9,1.5-1.6,1.8c-0.1,0-0.2,0.1-0.3,0.1c-0.6,0.2-1.3,0.2-1.9-0.1
		c-0.5-0.2-0.9-0.5-1.2-1c-0.4-0.6-0.6-1.3-0.6-2c0.1-0.7,0.3-1.3,0.8-1.8c0.4-0.5,1-0.8,1.7-0.9c0.4-0.1,0.8,0,1.2,0.1
		c0.2,0.1,0.5,0.2,0.7,0.3C132.5,126.3,133.1,127.7,132.6,129"/>
	<path class="st0" d="M120.6,128.1c0-1.7,0-3.3,0-5h0v0h2.4V121h-2.4v0c0-0.7,0-1.4,0-2.1c-0.7,0-1.4,0-2.1,0c0,0.7,0,1.4,0,2.1h0
		v2.1h0c0,1.6,0,3.1,0,4.7c0,0.5,0,1,0.2,1.5c0.1,0.5,0.3,0.9,0.5,1.3c0.2,0.4,0.5,0.7,0.8,1c0.9,1,2.2,1.5,3.5,1.5
		c0-0.7,0-1.4,0-2.1c-0.8,0-1.5-0.3-2-0.8C120.9,129.6,120.6,128.9,120.6,128.1"/>
</g>
</svg>
