<svg width="414" height="72" viewBox="0 0 414 72" fill="none" xmlns="http://www.w3.org/2000/svg">
<g clip-path="url(#clip0_54_26)">
<path d="M72.0034 36.0035C72.0034 36.0533 72.0034 36.103 72.0034 36.1527C72.0034 36.5931 71.9892 37.0263 71.975 37.4596C71.9466 38.2054 71.8969 38.9512 71.8187 39.6827C71.8116 39.7893 71.7974 39.8887 71.7832 39.9953C71.6909 40.805 71.5772 41.6076 71.4352 42.4031C71.4067 42.5806 71.3712 42.7582 71.3357 42.9287C71.2008 43.6176 71.0516 44.2995 70.874 44.9743C70.7959 45.2797 70.7106 45.5922 70.6254 45.8976C70.4265 46.6008 70.2063 47.2897 69.9648 47.9716C69.9506 48.0142 69.9364 48.0568 69.9222 48.0994C69.7091 48.6961 69.4818 49.2856 69.2403 49.868C69.0414 50.351 68.8283 50.8269 68.6081 51.3028C68.3951 51.7502 68.1749 52.1977 67.9476 52.6381C67.8268 52.8653 67.7061 53.0926 67.5853 53.3128C67.3864 53.675 67.1804 54.0302 66.9745 54.3782C66.598 55.0104 66.2073 55.6283 65.7953 56.232C65.6391 56.4664 65.4757 56.7008 65.3123 56.9281C65.1774 57.1199 65.0424 57.3045 64.9004 57.4963C64.7654 57.681 64.6305 57.8585 64.4884 58.0361C63.771 58.9666 63.0039 59.8544 62.2012 60.7067C62.1515 60.7564 62.1018 60.8133 62.0521 60.863C61.7324 61.1968 61.4128 61.5235 61.086 61.8431C61.0789 61.8502 61.0647 61.8574 61.0576 61.8716C60.1271 62.7736 59.154 63.6188 58.1383 64.4143C58.0175 64.5067 57.8968 64.599 57.776 64.6913C57.5061 64.8973 57.2291 65.1033 56.9521 65.3022C56.7745 65.43 56.5969 65.5579 56.4122 65.6786C55.1266 66.5664 53.777 67.369 52.3777 68.0864C52.0297 68.264 51.6816 68.4344 51.3265 68.6049C50.7938 68.8535 50.261 69.0879 49.7141 69.3152C49.2524 69.5069 48.7907 69.6845 48.3219 69.855C47.9241 69.997 47.5264 70.1391 47.1215 70.2669C46.5532 70.4516 45.985 70.6221 45.4026 70.7783C45.09 70.8636 44.7704 70.9417 44.4579 71.0198C43.7831 71.1832 43.0941 71.3252 42.4051 71.4531C42.2275 71.4815 42.0499 71.517 41.8724 71.5454C41.0839 71.6733 40.2884 71.7798 39.4928 71.8508C38.6405 71.9361 37.7739 71.9858 36.9002 72.0071C36.8718 72.0071 36.8363 72.0071 36.8079 72.0071C36.5451 72.0071 36.2894 72.0142 36.0266 72.0142C35.9839 72.0142 35.9342 72.0142 35.8916 72.0142C35.2239 72.0142 34.5562 71.9929 33.8885 71.9503C33.505 71.929 33.1285 71.9006 32.7521 71.865C30.1453 71.6307 27.6166 71.1193 25.2015 70.3522C23.6602 69.8692 22.1614 69.2797 20.7124 68.5978C8.45971 62.8375 0 50.4078 0 36.0035C0 16.116 16.1168 0 36.0052 0C50.5878 0 63.153 8.67239 68.807 21.1376C69.5386 22.7499 70.1566 24.4333 70.6467 26.1592C70.7817 26.6351 70.9095 27.111 71.0232 27.594C71.151 28.1196 71.2647 28.6523 71.3641 29.1921C71.5062 29.9378 71.6269 30.6978 71.7193 31.4649C71.8045 32.1326 71.8684 32.8073 71.9182 33.4892C71.9253 33.6313 71.9395 33.7733 71.9466 33.9154C71.9892 34.6043 72.0034 35.3004 72.0034 36.0035Z" fill="white"/>
<path d="M69.3622 35.9325C69.3622 35.9751 69.3622 36.0248 69.3622 36.0674C69.3622 36.4723 69.3551 36.8771 69.3338 37.2749C69.3054 37.9709 69.2557 38.6599 69.1918 39.3417C69.1846 39.4412 69.1704 39.5335 69.1633 39.633C69.0781 40.3858 68.9716 41.1316 68.8437 41.8632C68.8153 42.0266 68.7869 42.1899 68.7514 42.3533C68.6306 42.9925 68.4814 43.6247 68.3252 44.2497C68.2541 44.5338 68.176 44.8179 68.0908 45.102C67.9061 45.7484 67.7001 46.3876 67.4799 47.0198C67.4657 47.0553 67.4515 47.0979 67.4373 47.1334C67.2384 47.6874 67.0324 48.2343 66.8051 48.767C66.6205 49.2145 66.4216 49.6549 66.2156 50.0952C66.0167 50.5143 65.8178 50.9262 65.6047 51.3311C65.4982 51.5442 65.3845 51.7502 65.2709 51.9561C65.0862 52.29 64.9015 52.6238 64.7026 52.9505C64.3546 53.5329 63.9923 54.1083 63.6088 54.6694C63.4596 54.8895 63.3104 55.1026 63.1613 55.3157C63.0334 55.4933 62.9056 55.6637 62.7777 55.8413C62.6499 56.0118 62.522 56.1751 62.3941 56.3456C61.7265 57.205 61.0233 58.036 60.2774 58.8244C60.2348 58.8742 60.1851 58.9239 60.1425 58.9736C59.8513 59.279 59.5458 59.5844 59.2404 59.8827C59.2333 59.8898 59.2262 59.8969 59.212 59.904C58.3525 60.7351 57.4504 61.5235 56.4986 62.2621C56.385 62.3474 56.2713 62.4326 56.1577 62.5249C55.9091 62.7167 55.6534 62.9085 55.3906 63.0932C55.2272 63.2139 55.0567 63.3275 54.8933 63.4412C53.7 64.2651 52.4499 65.0109 51.1501 65.6785C50.8304 65.8419 50.5037 66.0053 50.1698 66.1615C49.6797 66.3959 49.1825 66.6161 48.6782 66.8221C48.252 66.9996 47.8258 67.163 47.3854 67.3193C47.0161 67.4542 46.6467 67.5821 46.2703 67.7028C45.7446 67.8733 45.2119 68.0295 44.6792 68.1716C44.388 68.2497 44.0967 68.3278 43.7984 68.3989C43.1662 68.548 42.5341 68.683 41.8948 68.7966C41.7314 68.825 41.561 68.8534 41.3976 68.8819C40.666 69.0026 39.9344 69.0949 39.1886 69.166C38.393 69.2441 37.5904 69.2938 36.7877 69.308C36.7593 69.308 36.7309 69.308 36.7025 69.308C36.461 69.308 36.2195 69.3151 35.978 69.3151C35.9354 69.3151 35.8927 69.3151 35.8501 69.3151C35.2251 69.3151 34.6071 69.2938 33.9962 69.2583C33.6411 69.237 33.293 69.2086 32.9379 69.1802C30.5229 68.96 28.1789 68.4841 25.9343 67.7809C24.4995 67.3335 23.1144 66.7866 21.7719 66.1544C10.4355 60.8203 2.59375 49.2926 2.59375 35.9325C2.59375 17.501 17.5385 2.5498 35.978 2.5498C49.5022 2.5498 61.1511 10.5901 66.3932 22.1532C67.075 23.6519 67.6433 25.2074 68.0979 26.8126C68.2257 27.253 68.3394 27.6933 68.4459 28.1408C68.5667 28.6309 68.6661 29.121 68.7656 29.6182C68.9005 30.3142 69.0071 31.0174 69.0994 31.7206C69.1775 32.3385 69.2415 32.9635 69.2841 33.5957C69.2912 33.7235 69.2983 33.8585 69.3125 33.9863C69.348 34.6256 69.3693 35.2719 69.3693 35.9254" fill="black"/>
<path d="M23.6959 54.7973V30.8115L21.8633 31.9124V55.8982L21.9343 55.8627L23.6959 54.7973Z" fill="white"/>
<path d="M26.8052 52.9292V28.9363L24.9727 30.0372V54.0301L25.0437 53.9875L26.8052 52.9292Z" fill="white"/>
<path d="M29.9185 51.0542V27.0684L28.0859 28.1693V52.1551L28.157 52.1196L29.9185 51.0542Z" fill="white"/>
<path d="M31.1953 50.2872L31.2663 50.2446L33.0279 49.1863V25.1934L31.1953 26.2943V50.2872Z" fill="white"/>
<path d="M21.8633 66.0692C23.2058 66.7014 24.5908 67.2483 26.0257 67.6958C28.2702 68.3989 30.6142 68.8748 33.0292 69.095V50.557L21.8633 57.2548V66.0621V66.0692Z" fill="white"/>
<path d="M63.2446 32.3528V31.5928L52.4267 25.2643V23.6094L69.3674 33.5248C69.3248 32.8926 69.2608 32.2676 69.1827 31.6497C69.0975 30.9394 68.9838 30.2362 68.8489 29.5473L63.2446 26.2658V25.5058L52.4267 19.1773V17.5224L68.1883 26.7417C67.7337 25.1365 67.1583 23.581 66.4836 22.0823L52.4338 13.6301L34.0938 24.6606V69.1803C34.7046 69.2158 35.3226 69.2371 35.9476 69.2371C35.9903 69.2371 36.0329 69.2371 36.0755 69.2371C36.317 69.2371 36.5585 69.2371 36.8 69.23V26.9193L39.2932 25.4206V69.0737C40.039 69.0027 40.7706 68.9104 41.5022 68.7896C41.6656 68.7612 41.8361 68.7328 41.9994 68.7044V23.7941L44.7838 22.1178V68.0794C45.3236 67.9373 45.8493 67.774 46.3749 67.6106C46.7513 67.4899 47.1207 67.362 47.4901 67.2271V20.4913L50.2744 18.8151V66.0693C50.6012 65.913 50.9279 65.7568 51.2547 65.5934C52.5545 64.9258 53.8047 64.18 54.998 63.3561L52.4409 61.8645V60.2096L56.2623 62.4469C56.3759 62.3617 56.4896 62.2765 56.6032 62.1841C57.548 61.4455 58.4571 60.6571 59.3166 59.826C59.3237 59.8189 59.3308 59.8118 59.345 59.8047L52.4551 55.7704V54.1155L60.3821 58.7535C61.1279 57.9651 61.8311 57.1341 62.4988 56.2747C62.6266 56.1113 62.7545 55.9409 62.8823 55.7704L52.4551 49.6692V48.0143L63.7205 54.6056C64.104 54.0444 64.4663 53.4691 64.8143 52.8867C65.0061 52.56 65.1979 52.2262 65.3826 51.8923L63.2801 50.6636V49.9036L52.4622 43.5751V41.9202L66.3344 50.0385C66.5404 49.5982 66.7393 49.1578 66.9239 48.7103C67.1512 48.1705 67.3572 47.6236 67.5561 47.0767L63.2801 44.5766V43.8166L52.4622 37.4881V35.8331L68.2096 45.0453C68.2877 44.7612 68.3659 44.4771 68.4369 44.193C68.6003 43.568 68.7423 42.9358 68.8631 42.2966C68.8915 42.1332 68.927 41.9699 68.9554 41.8065L63.2801 38.4824V37.7225L52.4622 31.394V29.739L69.2822 39.5834C69.2964 39.4839 69.3035 39.3916 69.3106 39.2922C69.3816 38.6103 69.4313 37.9213 69.4526 37.2324C69.4668 36.8275 69.481 36.4298 69.481 36.0249L63.2801 32.3954L63.2446 32.3528Z" fill="white"/>
<path d="M51.165 46.1534C51.165 45.9687 51.165 45.7912 51.1508 45.6136V45.5994C51.1366 45.4218 51.1224 45.2514 51.1011 45.0809C51.1011 45.0809 51.1011 45.0809 51.1011 45.0738C51.0798 44.9033 51.0514 44.7258 51.023 44.5624C50.9946 44.4133 50.9661 44.2641 50.9306 44.122C50.9164 44.0652 50.9022 44.0084 50.888 43.9587C50.8596 43.8379 50.8241 43.7172 50.7886 43.5964C50.7886 43.5822 50.7815 43.5751 50.7744 43.5609C49.6805 40.1445 46.477 38.2126 43.1741 38.2836C43.1102 38.2836 43.0463 38.2836 42.9823 38.2836C42.89 38.2836 42.7906 38.2907 42.6982 38.2978C42.5846 38.3049 42.478 38.3191 42.3644 38.3333C42.3076 38.3405 42.2436 38.3476 42.1868 38.3547C42.1797 38.3547 42.1726 38.3547 42.1584 38.3547C42.0163 38.376 41.8743 38.3973 41.7322 38.4257C41.7251 38.4257 41.718 38.4257 41.7109 38.4257C41.5902 38.447 41.4765 38.4754 41.3629 38.5109C41.1853 38.5535 41.0006 38.6032 40.823 38.6672C40.6952 38.7098 40.5602 38.7524 40.4324 38.8021C40.4181 38.8021 40.411 38.8092 40.3968 38.8163C40.2832 38.8589 40.1695 38.9087 40.0559 38.9584C40.0417 38.9584 40.0275 38.9726 40.0133 38.9797C39.7647 39.0933 39.5232 39.2212 39.2888 39.3561C39.2746 39.3632 39.2604 39.3703 39.2533 39.3774C39.2035 39.4059 39.1538 39.4343 39.1041 39.4698C39.0828 39.484 39.0615 39.4982 39.0402 39.5124C38.9691 39.555 38.9052 39.6047 38.8342 39.6473C38.8129 39.6616 38.7987 39.6758 38.7774 39.6829C38.6992 39.7397 38.6211 39.7894 38.5501 39.8462C38.4932 39.8888 38.4435 39.9315 38.3867 39.9741C38.2659 40.0735 38.1452 40.1729 38.0315 40.2724C37.9818 40.3221 37.9321 40.3647 37.8824 40.4144C37.8184 40.4713 37.7616 40.5281 37.7048 40.592C36.5328 41.7782 35.7657 43.2981 35.4886 44.8749C35.4815 44.9246 35.4673 44.9744 35.4602 45.0241C35.446 45.0951 35.4389 45.1661 35.4318 45.2372C35.4176 45.3792 35.4034 45.5213 35.3892 45.6633C35.3892 45.7273 35.3821 45.7912 35.375 45.8551C35.375 45.9545 35.375 46.054 35.375 46.1534C35.375 46.2529 35.375 46.3523 35.375 46.4517C35.375 46.5157 35.3821 46.5796 35.3892 46.6435C35.3963 46.7856 35.4105 46.9276 35.4318 47.0697C35.4389 47.1407 35.4531 47.2117 35.4602 47.2827C35.4673 47.3325 35.4744 47.3822 35.4886 47.4319C35.7657 49.0087 36.5399 50.5358 37.7119 51.7148C37.7687 51.7716 37.8255 51.8285 37.8824 51.8853C37.9321 51.935 37.9818 51.9847 38.0386 52.0273C38.1523 52.1268 38.273 52.2262 38.3938 52.3257C38.5216 52.4251 38.6566 52.5245 38.7916 52.624C38.8058 52.6382 38.8271 52.6453 38.8413 52.6595C38.9123 52.7092 38.9833 52.7518 39.0544 52.8015C39.0757 52.8157 39.097 52.8299 39.1112 52.837C39.168 52.8726 39.2177 52.901 39.2746 52.9365C39.2817 52.9365 39.2888 52.9507 39.303 52.9507C39.5374 53.0856 39.7789 53.2135 40.0275 53.3271C40.0417 53.3271 40.0559 53.3413 40.0701 53.3484C40.1838 53.3982 40.2903 53.4479 40.4039 53.4905C40.4182 53.4905 40.4324 53.5047 40.4466 53.5047C40.5744 53.5544 40.7023 53.597 40.8301 53.6396C41.0077 53.6965 41.1853 53.7462 41.3629 53.7959C41.4836 53.8243 41.5973 53.8527 41.718 53.8811C41.718 53.8811 41.7322 53.8811 41.7393 53.8811C41.8814 53.9096 42.0305 53.938 42.1726 53.9593C42.1726 53.9593 42.1868 53.9593 42.1939 53.9593C45.8236 54.4778 49.5811 52.5174 50.7815 48.753C50.7815 48.7388 50.7886 48.7317 50.7886 48.7175C50.8241 48.5967 50.8596 48.476 50.888 48.3552C50.9022 48.2984 50.9164 48.2487 50.9306 48.1919C50.9661 48.0498 51.0017 47.9007 51.023 47.7515C51.0514 47.5811 51.0798 47.4106 51.1011 47.2401C51.1011 47.2401 51.1011 47.2401 51.1011 47.233C51.1224 47.0626 51.1366 46.8921 51.1508 46.7145V46.7003C51.1579 46.5228 51.165 46.3452 51.165 46.1605V46.1534ZM41.995 47.4745C41.8814 47.8154 41.6754 48.128 41.3913 48.3552C41.1142 48.5825 40.7733 48.7317 40.4182 48.7672C40.0275 48.8098 39.6297 48.7246 39.2888 48.5257C39.2319 48.4973 39.1822 48.4618 39.1254 48.4192C39.1254 48.5115 39.1254 48.5967 39.1254 48.6891C38.8626 48.6891 38.5998 48.6891 38.337 48.6891C38.337 46.9276 38.337 45.1661 38.337 43.4118C38.5998 43.4118 38.8626 43.4118 39.1183 43.4118C39.1183 44.051 39.1183 44.6903 39.1183 45.3224C39.168 45.2869 39.2248 45.2514 39.2817 45.2159C39.7078 44.9602 40.2406 44.8891 40.7165 45.0383C41.306 45.2017 41.7961 45.6775 41.9808 46.26C41.9808 46.26 41.9808 46.2742 41.9808 46.2813C42.0518 46.4943 42.0803 46.7287 42.0732 46.9489C42.0661 47.1265 42.0305 47.304 41.9808 47.4745M44.751 48.7814C44.2538 48.7885 43.7566 48.5754 43.4227 48.2132C43.302 48.1067 43.2167 47.9717 43.1315 47.8367C43.0463 47.6805 42.9752 47.5171 42.9397 47.3467C42.89 47.162 42.8758 46.9702 42.8758 46.7856C42.8758 46.196 42.8758 45.5994 42.8758 45.0099V44.2215C42.8758 43.9516 42.8758 43.6817 42.8758 43.4118C43.1386 43.4118 43.4014 43.4118 43.6571 43.4118C43.6571 43.6817 43.6571 43.9445 43.6571 44.2144H44.5592V45.0028H43.6571V45.0241C43.6571 45.6491 43.6571 46.2671 43.6571 46.8921C43.6571 47.1762 43.7779 47.4674 43.9839 47.6592C44.1757 47.8652 44.4598 47.9788 44.7439 47.9788C44.7439 48.2416 44.7439 48.5115 44.7439 48.7743M49.027 48.6891C48.7642 48.6891 48.5014 48.6891 48.2386 48.6891C48.2386 48.6038 48.2386 48.5115 48.2386 48.4263C48.0113 48.5967 47.7414 48.7033 47.4573 48.753C47.2371 48.7885 47.0027 48.7885 46.7825 48.7459C46.3421 48.6607 45.9372 48.3979 45.6673 48.0356C45.5394 47.8652 45.44 47.6734 45.369 47.4674C45.2127 46.9631 45.2553 46.3949 45.5181 45.9403C45.7525 45.5071 46.1716 45.1661 46.6475 45.0312C46.9103 44.9602 47.1873 44.9389 47.4573 44.9886C47.6419 45.017 47.8195 45.0809 47.9829 45.1661C48.0752 45.2017 48.1462 45.2656 48.2386 45.3153C48.2386 45.2088 48.2386 45.1022 48.2386 44.9957C48.5014 44.9957 48.7642 44.9957 49.027 44.9957C49.027 46.2244 49.027 47.4532 49.027 48.6891Z" fill="black"/>
<path d="M47.7388 45.9402C47.6607 45.8905 47.5683 45.8479 47.476 45.8195C47.3268 45.7769 47.1706 45.7627 47.0143 45.784C46.7728 45.8195 46.5455 45.9331 46.3821 46.1107C46.2046 46.2954 46.098 46.5439 46.0838 46.7996C46.0696 47.0624 46.1406 47.3323 46.304 47.5383C46.4176 47.7017 46.581 47.8153 46.7586 47.9006C46.9859 47.9929 47.2416 48.0071 47.476 47.9361C47.5115 47.929 47.547 47.9148 47.5825 47.9006C47.8738 47.7798 48.1011 47.5241 48.2005 47.2187C48.3568 46.7499 48.1579 46.1888 47.7388 45.9331" fill="black"/>
<path d="M40.7232 45.8976C40.5243 45.7839 40.2828 45.7555 40.0555 45.7839C39.814 45.8194 39.5938 45.9402 39.4304 46.1178C39.3736 46.1746 39.331 46.2385 39.2884 46.3024C39.1889 46.4729 39.1321 46.6647 39.125 46.8564C39.1321 47.0624 39.1747 47.2684 39.2813 47.446C39.4446 47.723 39.7288 47.9218 40.0484 47.9716C40.297 48.0071 40.5527 47.9645 40.7658 47.8295C40.9363 47.7372 41.0641 47.5809 41.1636 47.4175C41.2488 47.2542 41.2985 47.0624 41.2985 46.8777C41.2843 46.7144 41.2701 46.551 41.1849 46.409C41.0925 46.1959 40.9221 46.0112 40.7161 45.8976" fill="black"/>
<path d="M50.2595 40.052C49.8334 39.5619 49.3503 39.1216 48.8105 38.7309C48.3914 38.4255 47.9439 38.1556 47.4822 37.9283C46.6299 37.5093 45.7136 37.2252 44.776 37.0831C43.8597 36.941 42.9221 36.941 41.9916 37.0831C41.466 37.1612 40.9404 37.282 40.4218 37.4524C40.0312 37.5803 39.6547 37.7294 39.2854 37.907C38.362 38.3545 37.5238 38.9582 36.7922 39.6969C36.4299 40.0662 36.089 40.4711 35.7836 40.9044C34.6897 42.4669 34.0859 44.335 34.0859 46.1603C34.0859 47.9857 34.6897 49.8608 35.7836 51.4163C36.089 51.8496 36.4228 52.2545 36.7922 52.6238C37.5167 53.3625 38.362 53.9662 39.2854 54.4137C39.6476 54.5912 40.0312 54.7404 40.4218 54.8682C40.9404 55.0387 41.466 55.1595 41.9916 55.2376C42.4462 55.3015 42.9008 55.337 43.3554 55.337C43.81 55.337 44.3072 55.3015 44.7689 55.2305C45.7065 55.0884 46.6228 54.8043 47.4751 54.3853C47.9368 54.158 48.3843 53.8881 48.8034 53.5827C49.3432 53.192 49.8262 52.7445 50.2524 52.2616C51.673 50.6421 52.4331 48.5326 52.4331 46.1603C52.4331 43.788 51.673 41.6785 50.2524 40.0591M51.1403 46.622C51.1403 46.622 51.1403 46.6788 51.1403 46.7073V46.7215C51.1403 46.7428 51.1403 46.7641 51.1403 46.7854C51.1403 46.8067 51.1403 46.8209 51.1403 46.8422C51.1403 46.8706 51.1403 46.8919 51.1403 46.9203C51.1403 46.9345 51.1403 46.9416 51.1403 46.9558C51.1403 46.9701 51.1403 46.9772 51.1403 46.9914C51.1403 47.0127 51.1403 47.034 51.1403 47.0624C51.1403 47.0979 51.1403 47.1334 51.1261 47.1689C51.1261 47.1902 51.1261 47.2186 51.119 47.24C51.119 47.24 51.119 47.24 51.119 47.2471C51.119 47.2613 51.119 47.2684 51.119 47.2826C51.1119 47.3536 51.0977 47.4246 51.0906 47.4957C51.0906 47.5312 51.0835 47.5667 51.0764 47.6022C51.0764 47.6377 51.0622 47.6732 51.0622 47.7087C51.0622 47.73 51.0622 47.7442 51.0551 47.7656C51.0551 47.7798 51.0551 47.8011 51.048 47.8153C51.048 47.8508 51.0338 47.8863 51.0267 47.9218C51.0267 47.9573 51.0125 47.9928 51.0053 48.0284C51.0053 48.0639 50.9911 48.0994 50.984 48.1349C50.984 48.1633 50.9698 48.1917 50.9627 48.2201C50.9485 48.2769 50.9343 48.3338 50.9201 48.3835C50.8917 48.5042 50.8562 48.625 50.8207 48.7457C50.8207 48.7599 50.8136 48.767 50.8136 48.7812C50.6786 49.2145 50.5081 49.6265 50.3021 50.0171C49.7765 51.0186 49.0378 51.878 48.1002 52.5599C47.9155 52.6948 47.7166 52.8227 47.5178 52.9434C46.6796 53.4406 45.7633 53.7815 44.8115 53.9449C43.9805 54.0941 43.121 54.1083 42.2686 53.9875C42.2544 53.9875 42.2331 53.9875 42.2189 53.9804C42.2189 53.9804 42.2047 53.9804 42.1976 53.9804C42.1692 53.9804 42.1408 53.9733 42.1124 53.9662C42.0839 53.9662 42.0555 53.9591 42.0271 53.952C42.0058 53.952 41.9845 53.9449 41.9561 53.9378C41.949 53.9378 41.9348 53.9378 41.9277 53.9378H41.9135C41.8851 53.9378 41.8495 53.9236 41.8211 53.9165C41.8211 53.9165 41.814 53.9165 41.8069 53.9165C41.7998 53.9165 41.7856 53.9165 41.7785 53.9165C41.7785 53.9165 41.7643 53.9165 41.7572 53.9165C41.7359 53.9165 41.7075 53.9094 41.6862 53.9023C41.6507 53.8952 41.608 53.8881 41.5725 53.8739C41.5299 53.8668 41.4944 53.8526 41.4518 53.8455C41.4376 53.8455 41.4163 53.8384 41.4021 53.8313C41.2245 53.7886 41.0469 53.7389 40.8693 53.675C40.7415 53.6324 40.6136 53.5898 40.4858 53.54C40.4716 53.54 40.4574 53.5258 40.4431 53.5258C40.3295 53.4832 40.2159 53.4335 40.1093 53.3838C40.0951 53.3838 40.0809 53.3696 40.0667 53.3625C39.8181 53.2488 39.5766 53.121 39.3422 52.986C39.3351 52.986 39.328 52.9789 39.3138 52.9718C39.2711 52.9434 39.2214 52.915 39.1788 52.8866C39.1717 52.8866 39.1575 52.8724 39.1504 52.8724C39.1291 52.8582 39.1078 52.844 39.0936 52.8369C39.0794 52.8298 39.0652 52.8156 39.051 52.8085C39.0083 52.7801 38.9657 52.7516 38.9231 52.7232C38.9089 52.7161 38.9018 52.709 38.8876 52.6948C38.8734 52.6806 38.8521 52.6735 38.8379 52.6593C38.8379 52.6593 38.8237 52.6522 38.8166 52.6451C38.8166 52.6451 38.8023 52.638 38.8023 52.6309C38.781 52.6167 38.7597 52.6025 38.7384 52.5883C38.7242 52.5812 38.7171 52.5741 38.7029 52.567C38.6745 52.5457 38.6532 52.5315 38.6248 52.5102C38.6106 52.503 38.5964 52.4888 38.5822 52.4817C38.5466 52.4533 38.5111 52.4249 38.4685 52.3965C38.4543 52.3894 38.4401 52.3752 38.433 52.361C38.3122 52.2616 38.1986 52.1621 38.0778 52.0627C38.0281 52.013 37.9713 51.9703 37.9216 51.9206C37.8647 51.8638 37.8079 51.807 37.7511 51.7502C37.4173 51.4163 37.1118 51.0541 36.8419 50.6706C36.1813 49.7188 35.7267 48.625 35.5279 47.4601C35.5207 47.4104 35.5136 47.3607 35.4994 47.311C35.4852 47.24 35.4781 47.1689 35.471 47.0979C35.4568 46.9558 35.4426 46.8138 35.4284 46.6717C35.4284 46.6575 35.4284 46.6433 35.4284 46.6291C35.4284 46.5794 35.4284 46.5297 35.4213 46.48C35.4213 46.4302 35.4213 46.3805 35.4213 46.3308C35.4213 46.2811 35.4213 46.2314 35.4213 46.1817C35.4213 46.1319 35.4213 46.0822 35.4213 46.0325C35.4213 45.9828 35.4213 45.9331 35.4213 45.8833C35.4213 45.8336 35.4213 45.7839 35.4284 45.7342C35.4284 45.72 35.4284 45.7058 35.4284 45.6916C35.4355 45.5495 35.4497 45.4075 35.471 45.2654C35.4781 45.1944 35.4923 45.1234 35.4994 45.0523C35.5065 45.0026 35.5136 44.9529 35.5279 44.9032C35.7267 43.7454 36.1813 42.6516 36.8419 41.6999C37.1118 41.3163 37.4173 40.9541 37.744 40.6273C37.8008 40.5705 37.8647 40.5066 37.9216 40.4498C37.9713 40.4001 38.021 40.3574 38.0707 40.3077C38.1844 40.2012 38.3051 40.1017 38.4259 40.0094C38.4401 40.0023 38.4472 39.9881 38.4614 39.981C38.4969 39.9526 38.5324 39.9242 38.5751 39.8958C38.5751 39.8958 38.5822 39.8958 38.5893 39.8887C38.5964 39.8887 38.6035 39.8745 38.6106 39.8674C38.639 39.8461 38.6603 39.8318 38.6887 39.8105C38.6958 39.8034 38.71 39.7963 38.7242 39.7892C38.7455 39.775 38.7668 39.7608 38.7881 39.7466C38.7881 39.7466 38.8023 39.7395 38.8023 39.7324C38.8023 39.7324 38.8166 39.7253 38.8166 39.7182C38.8379 39.704 38.8521 39.6898 38.8734 39.6827C38.8876 39.6756 38.8947 39.6685 38.9089 39.6614C38.9515 39.633 38.9941 39.6046 39.0367 39.5761C39.051 39.569 39.0652 39.5548 39.0794 39.5477C39.1007 39.5335 39.122 39.5193 39.1433 39.5051C39.1504 39.5051 39.1575 39.498 39.1646 39.4909C39.2072 39.4625 39.2498 39.4412 39.2925 39.4128C39.3067 39.4057 39.3209 39.3986 39.328 39.3915C39.5624 39.2565 39.8039 39.1287 40.0525 39.015C40.0667 39.015 40.0809 39.0008 40.0951 38.9937C40.2087 38.944 40.3224 38.8943 40.436 38.8517C40.4502 38.8517 40.4574 38.8446 40.4716 38.8375C40.5994 38.7878 40.7273 38.7451 40.8551 38.7025C41.0327 38.6457 41.2103 38.596 41.395 38.5463C41.4092 38.5463 41.4305 38.5392 41.4447 38.5321C41.4802 38.525 41.5228 38.5107 41.5654 38.5036C41.6009 38.4965 41.6436 38.4894 41.6791 38.4752C41.7004 38.4752 41.7288 38.4681 41.7501 38.461C41.7572 38.461 41.7643 38.461 41.7714 38.461C41.7785 38.461 41.7927 38.461 41.7998 38.461C41.7998 38.461 41.8069 38.461 41.814 38.461C41.8424 38.461 41.878 38.4468 41.9064 38.4397H41.9206C41.9277 38.4397 41.9419 38.4397 41.949 38.4397C41.9703 38.4397 41.9916 38.4326 42.02 38.4255C42.0484 38.4255 42.0768 38.4184 42.1053 38.4113C42.1337 38.4113 42.1621 38.4042 42.1905 38.3971C42.1976 38.3971 42.2047 38.3971 42.2189 38.3971C42.2331 38.3971 42.2473 38.3971 42.2686 38.3971C42.3112 38.3971 42.3539 38.39 42.3965 38.3829C42.5101 38.3687 42.6167 38.3545 42.7303 38.3474C42.8227 38.3403 42.9221 38.3332 43.0144 38.3332C43.0784 38.3332 43.1423 38.3332 43.2062 38.3332C43.2702 38.3332 43.3341 38.3332 43.398 38.3332C43.8739 38.3332 44.3498 38.3758 44.8115 38.4539C45.7633 38.6244 46.6796 38.9582 47.5178 39.4625C47.7166 39.5833 47.9084 39.7111 48.1002 39.846C49.0378 40.5279 49.7836 41.3873 50.3021 42.3888C50.5081 42.7795 50.6715 43.1914 50.8136 43.6247C50.8136 43.6389 50.8207 43.646 50.8278 43.6602C50.8633 43.7809 50.8988 43.9017 50.9272 44.0224C50.9414 44.0793 50.9556 44.1361 50.9698 44.1858C50.9698 44.2142 50.984 44.2426 50.9911 44.271C50.9982 44.3065 51.0053 44.3421 51.0125 44.3776C51.0196 44.4131 51.0267 44.4486 51.0338 44.4841C51.0338 44.5196 51.048 44.5551 51.0551 44.5906C51.0551 44.6049 51.0551 44.6262 51.0622 44.6404C51.0622 44.6617 51.0622 44.6759 51.0693 44.6972C51.0693 44.7327 51.0835 44.7682 51.0835 44.8037C51.0835 44.8392 51.0977 44.8748 51.0977 44.9103C51.1119 44.9813 51.119 45.0523 51.1261 45.1234C51.1261 45.1376 51.1261 45.1447 51.1261 45.1589C51.1261 45.1589 51.1261 45.1589 51.1261 45.166C51.1261 45.1873 51.1261 45.2157 51.1332 45.237C51.1332 45.2725 51.1403 45.308 51.1474 45.3435C51.1474 45.3648 51.1474 45.3862 51.1474 45.4146C51.1474 45.4288 51.1474 45.4359 51.1474 45.4501C51.1474 45.4643 51.1474 45.4714 51.1474 45.4856C51.1474 45.514 51.1474 45.5353 51.1474 45.5637C51.1474 45.585 51.1474 45.5992 51.1474 45.6205C51.1474 45.6419 51.1474 45.6632 51.1474 45.6845V45.6987C51.1474 45.7271 51.1474 45.7555 51.1474 45.7839C51.1474 45.862 51.1474 45.9331 51.1545 46.0112C51.1545 46.0893 51.1545 46.1674 51.1545 46.2385C51.1545 46.3166 51.1545 46.3947 51.1545 46.4729C51.1545 46.551 51.1545 46.622 51.1474 46.7001" fill="white"/>
<path d="M41.9805 46.2669C41.7958 45.6845 41.3057 45.2086 40.7162 45.0452C40.2403 44.9032 39.7075 44.9742 39.2813 45.2228C39.2245 45.2583 39.1748 45.2938 39.1251 45.3293C39.1251 44.6901 39.1251 44.0508 39.1251 43.4187C38.8623 43.4187 38.5995 43.4187 38.3438 43.4187C38.3438 45.1802 38.3438 46.9416 38.3438 48.696C38.6066 48.696 38.8694 48.696 39.1322 48.696C39.1322 48.6037 39.1322 48.5184 39.1322 48.4261C39.1819 48.4616 39.2387 48.4971 39.2956 48.5326C39.6365 48.7315 40.0343 48.8167 40.4249 48.7741C40.7801 48.7315 41.1281 48.5895 41.3981 48.3622C41.6822 48.1349 41.8882 47.8224 42.0018 47.4814C42.0586 47.311 42.087 47.1405 42.0941 46.9629C42.0941 46.7357 42.0728 46.5084 42.0018 46.2953C42.0018 46.2953 42.0018 46.2811 42.0018 46.274M41.185 47.4246C41.0855 47.588 40.9577 47.7442 40.7872 47.8366C40.5741 47.9715 40.3113 48.0141 40.0698 47.9786C39.7573 47.9289 39.466 47.73 39.3027 47.453C39.1961 47.2755 39.1535 47.0695 39.1464 46.8635C39.1464 46.6717 39.2103 46.48 39.3098 46.3095C39.3524 46.2456 39.395 46.1816 39.4518 46.1248C39.6152 45.9473 39.8354 45.8265 40.0769 45.791C40.3042 45.7626 40.5457 45.791 40.7446 45.9046C40.9506 46.0183 41.121 46.1959 41.2134 46.416C41.2915 46.5581 41.3128 46.7286 41.327 46.8848C41.327 47.0695 41.2773 47.2613 41.1921 47.4246" fill="white"/>
<path d="M48.2573 45.3224C48.1721 45.2727 48.094 45.2158 48.0016 45.1732C47.8383 45.088 47.6536 45.0241 47.476 44.9957C47.2061 44.953 46.9291 44.9672 46.6662 45.0383C46.1903 45.1732 45.7713 45.507 45.5369 45.9474C45.2741 46.402 45.2314 46.9702 45.3877 47.4745C45.4516 47.6805 45.5582 47.8722 45.686 48.0427C45.9559 48.3978 46.3608 48.6606 46.8012 48.753C47.0214 48.7956 47.2558 48.8027 47.476 48.7601C47.7601 48.7104 48.03 48.6038 48.2573 48.4334C48.2573 48.5186 48.2573 48.6109 48.2573 48.6962C48.5201 48.6962 48.783 48.6962 49.0458 48.6962C49.0458 47.4674 49.0458 46.2315 49.0458 45.0028C48.783 45.0028 48.5201 45.0028 48.2573 45.0028C48.2573 45.1093 48.2573 45.2158 48.2573 45.3224ZM48.2005 47.2188C48.1082 47.5171 47.8738 47.7799 47.5825 47.9007C47.547 47.9149 47.5115 47.9291 47.476 47.9362C47.2416 48.0072 46.9859 47.993 46.7586 47.9007C46.581 47.8225 46.4176 47.7018 46.304 47.5384C46.1406 47.3324 46.0767 47.0625 46.0838 46.7997C46.1051 46.544 46.2046 46.2954 46.3821 46.1108C46.5455 45.9332 46.7728 45.8196 47.0143 45.7841C47.1706 45.7627 47.3268 45.7698 47.476 45.8196C47.5683 45.848 47.6607 45.8906 47.7388 45.9403C48.1579 46.196 48.3568 46.7571 48.2005 47.2259" fill="white"/>
<path d="M43.6681 46.899C43.6681 46.274 43.6681 45.656 43.6681 45.031V45.0168H44.5701V44.2284H43.6681C43.6681 43.9585 43.6681 43.6886 43.6681 43.4258C43.4052 43.4258 43.1424 43.4258 42.8867 43.4258C42.8867 43.6957 42.8867 43.9656 42.8867 44.2355V45.0239C42.8867 45.6134 42.8867 46.21 42.8867 46.7996C42.8867 46.9913 42.9009 47.176 42.9506 47.3607C42.9862 47.5311 43.0572 47.6945 43.1424 47.8508C43.2277 47.9857 43.3129 48.1207 43.4337 48.2272C43.7746 48.5894 44.2647 48.8025 44.7619 48.7954C44.7619 48.5326 44.7619 48.2627 44.7619 47.9999C44.4778 47.9999 44.1937 47.8863 44.0019 47.6803C43.7959 47.4814 43.6823 47.1973 43.6752 46.9132" fill="white"/>
<path d="M105.131 30.783C105.131 33.2335 103.27 34.6469 99.6541 34.6469H92.8281V20.3421H99.2422C102.531 20.3421 104.371 21.7342 104.371 24.0426C104.371 25.5981 103.575 26.6777 102.453 27.2317C104.065 27.6792 105.131 28.8866 105.131 30.7901V30.783ZM94.8738 21.997V26.5711H99.0646C101.146 26.5711 102.332 25.797 102.332 24.2841C102.332 22.7712 101.146 21.997 99.0646 21.997H94.8738ZM103.064 30.6197C103.064 28.9648 101.835 28.2261 99.5689 28.2261H94.8667V32.9849H99.5689C101.835 32.9849 103.064 32.2675 103.064 30.6126V30.6197Z" fill="white"/>
<path d="M117.087 23.8152V34.6468H115.226V33.0132C114.43 34.1354 113.081 34.7675 111.546 34.7675C108.748 34.7675 106.887 33.2334 106.887 30.0514V23.8223H108.847V29.8312C108.847 31.9549 109.913 33.0203 111.767 33.0203C113.812 33.0203 115.119 31.756 115.119 29.4263V23.8294H117.08L117.087 23.8152Z" fill="white"/>
<path d="M119.449 20.4628C119.449 19.7455 120.025 19.1772 120.777 19.1772C121.53 19.1772 122.106 19.7313 122.106 20.4202C122.106 21.1589 121.552 21.7271 120.777 21.7271C120.003 21.7271 119.449 21.1731 119.449 20.4628ZM119.797 23.8153H121.758V34.6469H119.797V23.8153Z" fill="white"/>
<path d="M124.48 31.4578V19.4827H126.441V31.2944C126.441 32.4593 126.995 33.1127 128.117 33.1127C128.487 33.1127 128.856 33.0133 129.076 32.9068L129.176 34.5191C128.728 34.6824 128.238 34.7606 127.769 34.7606C125.667 34.7606 124.48 33.5318 124.48 31.4507V31.4578Z" fill="white"/>
<path d="M140.227 19.4827V34.6398H138.344V32.921C137.464 34.1497 136.079 34.7606 134.48 34.7606C131.312 34.7606 129.004 32.5303 129.004 29.2205C129.004 25.9106 131.312 23.7017 134.48 23.7017C136.015 23.7017 137.364 24.277 138.259 25.4418V19.4756H140.22L140.227 19.4827ZM138.288 29.2276C138.288 26.9192 136.711 25.4276 134.651 25.4276C132.591 25.4276 130.993 26.9192 130.993 29.2276C130.993 31.5359 132.563 33.0488 134.651 33.0488C136.739 33.0488 138.288 31.5359 138.288 29.2276Z" fill="white"/>
<path d="M142.578 20.4628C142.578 19.7455 143.153 19.1772 143.906 19.1772C144.659 19.1772 145.235 19.7313 145.235 20.4202C145.235 21.1589 144.681 21.7271 143.906 21.7271C143.132 21.7271 142.578 21.1731 142.578 20.4628ZM142.926 23.8153H144.887V34.6469H142.926V23.8153Z" fill="white"/>
<path d="M157.884 28.4108V34.6398H155.924V28.631C155.924 26.5072 154.858 25.4631 153.004 25.4631C150.923 25.4631 149.574 26.7061 149.574 29.0571V34.6327H147.613V23.8011H149.496V25.4347C150.291 24.3338 151.683 23.6946 153.395 23.6946C156.03 23.6946 157.891 25.2075 157.891 28.3966L157.884 28.4108Z" fill="white"/>
<path d="M170.854 23.8153V33.1695C170.854 36.9908 168.915 38.7238 165.235 38.7238C163.254 38.7238 161.251 38.1698 160.064 37.1115L161.002 35.5986C162.003 36.4581 163.573 37.005 165.171 37.005C167.728 37.005 168.893 35.8188 168.893 33.3684V32.509C167.956 33.6312 166.542 34.1852 164.994 34.1852C161.868 34.1852 159.496 32.0615 159.496 28.9363C159.496 25.8111 161.868 23.7087 164.994 23.7087C166.606 23.7087 168.077 24.2983 169 25.4844V23.8082H170.861L170.854 23.8153ZM168.936 28.9434C168.936 26.841 167.38 25.4276 165.214 25.4276C163.048 25.4276 161.478 26.8339 161.478 28.9434C161.478 31.0529 163.033 32.4806 165.214 32.4806C167.395 32.4806 168.936 31.0316 168.936 28.9434Z" fill="white"/>
<path d="M187.776 23.4317C186.384 22.6362 184.892 22.1674 183.322 22.0254V34.654H181.298V22.0254C179.742 22.1674 178.251 22.6149 176.823 23.4317L176.105 21.8194C177.988 20.6972 180.133 20.1858 182.278 20.1858C184.423 20.1858 186.611 20.6972 188.486 21.8194L187.769 23.4317H187.776Z" fill="white"/>
<path d="M197.249 31.7419L198.314 33.0062C197.355 34.1497 195.864 34.7606 194.067 34.7606C190.572 34.7606 188.242 32.4522 188.242 29.2205C188.242 25.9887 190.529 23.7017 193.676 23.7017C196.638 23.7017 198.946 25.7827 199.01 29.0145L190.409 30.6907C190.963 32.1823 192.312 33.0417 194.131 33.0417C195.395 33.0417 196.46 32.6155 197.256 31.7348L197.249 31.7419ZM190.139 29.1281V29.3341L197.064 28.0272C196.716 26.4717 195.43 25.3708 193.669 25.3708C191.602 25.3708 190.132 26.8624 190.132 29.1281H190.139Z" fill="white"/>
<path d="M199.723 29.2275C199.723 25.9958 202.116 23.7087 205.441 23.7087C207.38 23.7087 208.999 24.5042 209.852 26.0171L208.36 26.976C207.664 25.9106 206.606 25.4205 205.419 25.4205C203.295 25.4205 201.697 26.9121 201.697 29.2204C201.697 31.5288 203.288 33.0417 205.419 33.0417C206.606 33.0417 207.664 32.5516 208.36 31.4862L209.852 32.4237C208.992 33.9366 207.38 34.7534 205.441 34.7534C202.109 34.7534 199.723 32.4451 199.723 29.2133V29.2275Z" fill="white"/>
<path d="M221.642 28.4108V34.6398H219.682V28.631C219.682 26.5073 218.616 25.4632 216.762 25.4632C214.681 25.4632 213.332 26.7061 213.332 29.0571V34.6327H211.371V19.4756H213.332V25.3424C214.148 24.2983 215.498 23.7088 217.153 23.7088C219.788 23.7088 221.649 25.2217 221.649 28.4108H221.642Z" fill="white"/>
<path d="M234.533 28.4108V34.6398H232.572V28.631C232.572 26.5072 231.507 25.4631 229.653 25.4631C227.572 25.4631 226.222 26.7061 226.222 29.0571V34.6327H224.262V23.8011H226.144V25.4347C226.94 24.3338 228.332 23.6946 230.044 23.6946C232.679 23.6946 234.54 25.2075 234.54 28.3966L234.533 28.4108Z" fill="white"/>
<path d="M236.152 29.2275C236.152 25.9958 238.546 23.7087 241.792 23.7087C245.038 23.7087 247.411 25.9958 247.411 29.2275C247.411 32.4593 245.038 34.7676 241.792 34.7676C238.546 34.7676 236.152 32.4593 236.152 29.2275ZM245.429 29.2275C245.429 26.9192 243.873 25.4276 241.792 25.4276C239.711 25.4276 238.134 26.9192 238.134 29.2275C238.134 31.5359 239.704 33.0488 241.792 33.0488C243.88 33.0488 245.429 31.5359 245.429 29.2275Z" fill="white"/>
<path d="M249.102 31.4578V19.4827H251.062V31.2944C251.062 32.4593 251.616 33.1127 252.738 33.1127C253.108 33.1127 253.477 33.0133 253.697 32.9068L253.797 34.5191C253.349 34.6824 252.859 34.7606 252.39 34.7606C250.288 34.7606 249.102 33.5318 249.102 31.4507V31.4578Z" fill="white"/>
<path d="M253.641 29.2276C253.641 25.9958 256.034 23.7088 259.28 23.7088C262.527 23.7088 264.899 25.9958 264.899 29.2276C264.899 32.4593 262.527 34.7677 259.28 34.7677C256.034 34.7677 253.641 32.4593 253.641 29.2276ZM262.917 29.2276C262.917 26.9192 261.362 25.4276 259.28 25.4276C257.199 25.4276 255.622 26.9192 255.622 29.2276C255.622 31.5359 257.192 33.0488 259.28 33.0488C261.369 33.0488 262.917 31.5359 262.917 29.2276Z" fill="white"/>
<path d="M276.951 23.8153V33.1695C276.951 36.9908 275.012 38.7238 271.333 38.7238C269.351 38.7238 267.348 38.1698 266.162 37.1115L267.1 35.5986C268.101 36.4581 269.671 37.005 271.269 37.005C273.826 37.005 274.991 35.8188 274.991 33.3684V32.509C274.053 33.6312 272.64 34.1852 271.091 34.1852C267.966 34.1852 265.594 32.0615 265.594 28.9363C265.594 25.8111 267.966 23.7087 271.091 23.7087C272.704 23.7087 274.174 24.2983 275.098 25.4844V23.8082H276.959L276.951 23.8153ZM275.034 28.9434C275.034 26.841 273.478 25.4276 271.312 25.4276C269.145 25.4276 267.575 26.8339 267.575 28.9434C267.575 31.0529 269.131 32.4806 271.312 32.4806C273.492 32.4806 275.034 31.0316 275.034 28.9434Z" fill="white"/>
<path d="M289.759 23.8152V33.1695C289.759 36.9907 287.941 38.7238 284.446 38.7238C282.564 38.7238 280.667 38.1697 279.523 37.1114L280.482 35.5986C281.42 36.458 282.833 36.9907 284.346 36.9907C286.74 36.9907 287.798 35.8259 287.798 33.3754V32.5799C287.003 33.624 285.696 34.1922 284.226 34.1922C281.427 34.1922 279.566 32.6794 279.566 29.4903V23.8081H281.526V29.263C281.526 31.3654 282.592 32.4308 284.446 32.4308C286.492 32.4308 287.798 31.1665 287.798 28.8368V23.8081H289.759V23.8152Z" fill="white"/>
<path d="M309.412 26.6138V34.6469H307.366V30.7049H299.112V34.6469H297.109V26.6138C297.109 22.3876 299.56 20.1787 303.239 20.1787C306.919 20.1787 309.412 22.3876 309.412 26.6138ZM307.366 28.9221V26.4291C307.366 23.4459 305.775 21.997 303.239 21.997C300.704 21.997 299.112 23.4459 299.112 26.4291V28.9221H307.366Z" fill="white"/>
<path d="M318.095 23.7158V25.6193C317.931 25.598 317.789 25.598 317.647 25.598C315.545 25.598 314.238 26.8836 314.238 29.2559V34.6469H312.277V23.8153H314.16V25.6335C314.856 24.3693 316.205 23.7158 318.102 23.7158H318.095Z" fill="white"/>
<path d="M318.625 29.2275C318.625 25.9958 321.019 23.7087 324.343 23.7087C326.282 23.7087 327.902 24.5042 328.754 26.0171L327.262 26.976C326.566 25.9106 325.508 25.4205 324.322 25.4205C322.198 25.4205 320.6 26.9121 320.6 29.2204C320.6 31.5288 322.191 33.0417 324.322 33.0417C325.508 33.0417 326.566 32.5516 327.262 31.4862L328.754 32.4237C327.894 33.9366 326.282 34.7534 324.343 34.7534C321.012 34.7534 318.625 32.4451 318.625 29.2133V29.2275Z" fill="white"/>
<path d="M340.544 28.4108V34.6398H338.584V28.631C338.584 26.5073 337.519 25.4632 335.665 25.4632C333.583 25.4632 332.234 26.7061 332.234 29.0571V34.6327H330.273V19.4756H332.234V25.3424C333.051 24.2983 334.4 23.7088 336.055 23.7088C338.691 23.7088 340.552 25.2217 340.552 28.4108H340.544Z" fill="white"/>
<path d="M342.82 20.4628C342.82 19.7455 343.396 19.1772 344.149 19.1772C344.901 19.1772 345.477 19.7313 345.477 20.4202C345.477 21.1589 344.923 21.7271 344.149 21.7271C343.374 21.7271 342.82 21.1731 342.82 20.4628ZM343.168 23.8153H345.129V34.6469H343.168V23.8153Z" fill="white"/>
<path d="M353.545 34.0149C352.956 34.5263 352.054 34.7678 351.173 34.7678C348.985 34.7678 347.742 33.5603 347.742 31.3727V21.4431H349.703V23.8154H352.807V25.4277H349.703V31.2946C349.703 32.4594 350.292 33.1128 351.4 33.1128C351.976 33.1128 352.523 32.9282 352.934 32.6014L353.545 34.0078V34.0149Z" fill="white"/>
<path d="M362.901 31.7419L363.967 33.0062C363.008 34.1497 361.516 34.7606 359.719 34.7606C356.224 34.7606 353.895 32.4522 353.895 29.2205C353.895 25.9887 356.182 23.7017 359.328 23.7017C362.29 23.7017 364.599 25.7827 364.663 29.0145L356.061 30.6907C356.615 32.1823 357.957 33.0417 359.776 33.0417C361.04 33.0417 362.106 32.6155 362.901 31.7348V31.7419ZM355.791 29.1281V29.3341L362.716 28.0272C362.368 26.4717 361.083 25.3708 359.328 25.3708C357.261 25.3708 355.791 26.8624 355.791 29.1281Z" fill="white"/>
<path d="M365.371 29.2275C365.371 25.9958 367.765 23.7087 371.089 23.7087C373.028 23.7087 374.648 24.5042 375.5 26.0171L374.008 26.976C373.312 25.9106 372.254 25.4205 371.068 25.4205C368.944 25.4205 367.346 26.9121 367.346 29.2204C367.346 31.5288 368.937 33.0417 371.068 33.0417C372.254 33.0417 373.312 32.5516 374.008 31.4862L375.5 32.4237C374.641 33.9366 373.028 34.7534 371.089 34.7534C367.758 34.7534 365.371 32.4451 365.371 29.2133V29.2275Z" fill="white"/>
<path d="M382.717 34.0149C382.128 34.5263 381.226 34.7678 380.345 34.7678C378.157 34.7678 376.914 33.5603 376.914 31.3727V21.4431H378.875V23.8154H381.979V25.4277H378.875V31.2946C378.875 32.4594 379.464 33.1128 380.572 33.1128C381.147 33.1128 381.694 32.9282 382.106 32.6014L382.717 34.0078V34.0149Z" fill="white"/>
<path d="M394.161 23.8152V34.6468H392.3V33.0132C391.504 34.1354 390.155 34.7675 388.621 34.7675C385.822 34.7675 383.961 33.2334 383.961 30.0514V23.8223H385.921V29.8312C385.921 31.9549 386.987 33.0203 388.841 33.0203C390.886 33.0203 392.193 31.756 392.193 29.4263V23.8294H394.154L394.161 23.8152Z" fill="white"/>
<path d="M402.696 23.7158V25.6193C402.533 25.598 402.391 25.598 402.249 25.598C400.146 25.598 398.839 26.8836 398.839 29.2559V34.6469H396.879V23.8153H398.761V25.6335C399.457 24.3693 400.807 23.7158 402.703 23.7158H402.696Z" fill="white"/>
<path d="M412.237 31.7419L413.303 33.0062C412.344 34.1497 410.852 34.7606 409.055 34.7606C405.56 34.7606 403.23 32.4522 403.23 29.2205C403.23 25.9887 405.518 23.7017 408.664 23.7017C411.626 23.7017 413.935 25.7827 413.999 29.0145L405.397 30.6907C405.951 32.1823 407.293 33.0417 409.119 33.0417C410.383 33.0417 411.449 32.6155 412.244 31.7348L412.237 31.7419ZM405.127 29.1281V29.3341L412.052 28.0272C411.704 26.4717 410.419 25.3708 408.657 25.3708C406.59 25.3708 405.12 26.8624 405.12 29.1281H405.127Z" fill="white"/>
<path d="M304.741 49.2358L304.692 49.7756C304.471 49.868 304.166 49.9177 303.903 49.9177C302.966 49.9177 302.461 49.3637 302.49 48.4972C301.843 49.385 300.856 49.9177 299.613 49.9177C297.873 49.9177 296.715 48.8452 296.715 47.1192C296.715 44.7967 298.313 43.0849 300.515 43.0849C301.921 43.0849 302.845 43.717 303.171 44.8109L303.505 43.1346H304.152L303.171 48.0071C303.143 48.1633 303.136 48.3054 303.136 48.4332C303.136 49.0228 303.449 49.3637 304.074 49.3637C304.343 49.3637 304.578 49.314 304.741 49.2358ZM302.902 45.926C302.902 44.4983 302.028 43.6744 300.515 43.6744C298.697 43.6744 297.361 45.1163 297.361 47.0908C297.361 48.5185 298.235 49.3495 299.748 49.3495C301.566 49.3495 302.902 47.9218 302.902 45.9331V45.926Z" fill="white"/>
<path d="M306.632 47.9218C306.597 48.0993 306.582 48.2556 306.582 48.3976C306.582 49.0298 306.916 49.3636 307.612 49.3636C308.01 49.3636 308.401 49.2358 308.706 48.9872L308.898 49.463C308.5 49.7827 307.96 49.9176 307.456 49.9176C306.49 49.9176 305.922 49.3778 305.922 48.4758C305.922 48.3195 305.936 48.1561 305.972 47.9715L307.236 41.6714H307.882L307.584 43.1416H309.722L309.615 43.6957H307.477L306.625 47.9218H306.632Z" fill="white"/>
<path d="M314.23 47.9218C314.194 48.0993 314.18 48.2556 314.18 48.3976C314.18 49.0298 314.514 49.3636 315.21 49.3636C315.608 49.3636 315.998 49.2358 316.304 48.9872L316.496 49.463C316.098 49.7827 315.558 49.9176 315.054 49.9176C314.088 49.9176 313.52 49.3778 313.52 48.4758C313.52 48.3195 313.534 48.1561 313.569 47.9715L314.834 41.6714H315.48L315.182 43.1416H317.32L317.213 43.6957H315.075L314.223 47.9218H314.23Z" fill="white"/>
<path d="M324.758 45.244C324.758 45.4784 324.729 45.7199 324.68 45.9756L323.905 49.8679H323.259L324.033 45.9756C324.083 45.7412 324.097 45.5352 324.097 45.3292C324.097 44.2851 323.465 43.6672 322.201 43.6672C320.666 43.6672 319.587 44.5337 319.253 46.2029L318.521 49.8608H317.875L319.779 40.3005H320.425L319.615 44.3846C320.276 43.4825 321.242 43.0848 322.371 43.0848C323.92 43.0848 324.758 43.9087 324.758 45.2369V45.244Z" fill="white"/>
<path d="M332.672 45.9544C332.672 46.0467 332.657 46.132 332.657 46.2243L326.783 47.3323C326.875 48.6179 327.721 49.3424 329.255 49.3424C330.207 49.3424 331.031 49.0086 331.563 48.4403L331.862 48.8949C331.272 49.5413 330.292 49.9248 329.205 49.9248C327.302 49.9248 326.137 48.8665 326.137 47.105C326.137 44.8251 327.685 43.0991 329.809 43.0991C331.563 43.0991 332.672 44.1432 332.672 45.9615V45.9544ZM326.769 46.828L332.068 45.8266C332.082 44.477 331.201 43.646 329.802 43.646C328.111 43.646 326.875 44.96 326.776 46.828H326.769Z" fill="white"/>
<path d="M344.022 45.8905C344.022 48.2131 342.409 49.9248 340.207 49.9248C338.801 49.9248 337.885 49.3069 337.551 48.1989L336.713 52.3752H336.066L337.906 43.1488H338.538L338.283 44.4486C338.929 43.5963 339.909 43.0991 341.102 43.0991C342.843 43.0991 344.015 44.1716 344.015 45.8976L344.022 45.8905ZM343.368 45.926C343.368 44.4984 342.495 43.6744 340.982 43.6744C339.163 43.6744 337.828 45.1021 337.828 47.0908C337.828 48.5185 338.702 49.3495 340.222 49.3495C342.04 49.3495 343.368 47.9076 343.368 45.9331V45.926Z" fill="white"/>
<path d="M351.394 45.9544C351.394 46.0467 351.38 46.132 351.38 46.2243L345.506 47.3323C345.598 48.6179 346.443 49.3424 347.978 49.3424C348.929 49.3424 349.753 49.0086 350.286 48.4403L350.584 48.8949C349.995 49.5413 349.015 49.9248 347.928 49.9248C346.024 49.9248 344.859 48.8665 344.859 47.105C344.859 44.8251 346.408 43.0991 348.532 43.0991C350.286 43.0991 351.394 44.1432 351.394 45.9615V45.9544ZM345.492 46.828L350.79 45.8266C350.805 44.477 349.924 43.646 348.525 43.646C346.834 43.646 345.598 44.96 345.499 46.828H345.492Z" fill="white"/>
<path d="M360.229 49.2359L360.179 49.7757C359.959 49.868 359.653 49.9178 359.391 49.9178C358.453 49.9178 357.949 49.3637 357.97 48.4972C357.324 49.3851 356.336 49.9178 355.093 49.9178C353.353 49.9178 352.195 48.8452 352.195 47.1193C352.195 44.7967 353.793 43.085 355.995 43.085C357.402 43.085 358.325 43.7171 358.652 44.8109L358.986 43.1347H359.632L358.652 48.0071C358.624 48.1634 358.616 48.3054 358.616 48.4333C358.616 49.0228 358.929 49.3637 359.554 49.3637C359.824 49.3637 360.058 49.314 360.222 49.2359H360.229ZM358.389 45.926C358.389 44.4984 357.515 43.6745 356.003 43.6745C354.184 43.6745 352.849 45.1163 352.849 47.0909C352.849 48.5185 353.722 49.3495 355.235 49.3495C357.054 49.3495 358.389 47.9219 358.389 45.9331V45.926Z" fill="white"/>
<path d="M364.805 45.8906L367.227 49.8752H366.481L364.3 46.2812L362.212 47.8935L361.814 49.8752H361.168L363.072 40.3149H363.718L362.375 47.0554L367.39 43.1489H368.328L364.798 45.8906H364.805Z" fill="white"/>
<path d="M371.184 47.1264C371.184 44.818 372.796 43.092 375.033 43.092C376.852 43.092 378.01 44.1716 378.01 45.8905C378.01 48.2131 376.397 49.9248 374.16 49.9248C372.341 49.9248 371.184 48.831 371.184 47.1264ZM377.37 45.926C377.37 44.4984 376.497 43.6745 374.984 43.6745C373.165 43.6745 371.83 45.1163 371.83 47.0909C371.83 48.5185 372.704 49.3495 374.217 49.3495C376.035 49.3495 377.37 47.9219 377.37 45.9331V45.926Z" fill="white"/>
<path d="M381.128 42.2184L380.936 43.1488H383.088L382.989 43.7028H380.837L379.615 49.8751H378.969L380.517 42.1331C380.759 40.9186 381.497 40.2651 382.669 40.2651C383.188 40.2651 383.685 40.4214 383.969 40.7126L383.657 41.1743C383.415 40.9399 383.067 40.812 382.648 40.812C381.81 40.812 381.32 41.2382 381.128 42.2184Z" fill="white"/>
<path d="M386.71 47.9218C386.675 48.0994 386.661 48.2557 386.661 48.3977C386.661 49.0299 386.994 49.3637 387.691 49.3637C388.088 49.3637 388.479 49.2358 388.784 48.9872L388.976 49.4631C388.578 49.7827 388.039 49.9177 387.534 49.9177C386.568 49.9177 386 49.3779 386 48.4758C386 48.3196 386.014 48.1562 386.05 47.9716L387.314 41.6715H387.96L387.662 43.1417H389.8L389.694 43.6957H387.556L386.703 47.9218H386.71Z" fill="white"/>
<path d="M394.901 43.092L394.788 43.7242C394.71 43.7242 394.66 43.71 394.582 43.71C393.062 43.71 392.053 44.6262 391.698 46.4161L391.002 49.868H390.355L391.698 43.1418H392.33L392.046 44.5623C392.636 43.5963 393.552 43.092 394.908 43.092H394.901Z" fill="white"/>
<path d="M402.97 49.236L402.906 49.7758C402.7 49.8681 402.387 49.9178 402.131 49.9178C401.201 49.9178 400.689 49.3638 400.725 48.5257C400.057 49.4917 399.063 49.9178 397.905 49.9178C396.385 49.9178 395.547 49.0939 395.547 47.7657C395.547 47.5313 395.575 47.2898 395.625 47.0341L396.399 43.1418H397.046L396.271 47.0341C396.222 47.2685 396.207 47.4887 396.207 47.6805C396.207 48.7246 396.825 49.3425 398.076 49.3425C399.596 49.3425 400.668 48.476 401.002 46.8068L401.734 43.1489H402.38L401.4 48.0214C401.364 48.1777 401.35 48.3339 401.35 48.4618C401.35 49.0513 401.67 49.378 402.302 49.378C402.572 49.378 402.806 49.3283 402.97 49.2502V49.236Z" fill="white"/>
<path d="M403.133 49.0725L403.481 48.5682C403.985 49.0441 404.873 49.3566 405.804 49.3566C407.196 49.3566 407.991 48.831 407.991 47.9645C407.991 46.2669 404.113 47.3963 404.113 45.1305C404.113 43.8946 405.235 43.092 406.926 43.092C407.764 43.092 408.652 43.3335 409.142 43.7455L408.844 44.2498C408.325 43.852 407.579 43.6603 406.869 43.6603C405.541 43.6603 404.745 44.2285 404.745 45.0666C404.745 46.8067 408.638 45.6703 408.638 47.9006C408.638 49.179 407.494 49.9248 405.754 49.9248C404.681 49.9248 403.651 49.5626 403.14 49.0725H403.133Z" fill="white"/>
<path d="M410.726 47.9218C410.69 48.0993 410.676 48.2556 410.676 48.3976C410.676 49.0298 411.01 49.3636 411.706 49.3636C412.104 49.3636 412.495 49.2358 412.8 48.9872L412.992 49.463C412.594 49.7827 412.054 49.9176 411.55 49.9176C410.584 49.9176 410.016 49.3778 410.016 48.4758C410.016 48.3195 410.03 48.1561 410.065 47.9715L411.33 41.6714H411.976L411.678 43.1416H413.816L413.709 43.6957H411.571L410.719 47.9218H410.726Z" fill="white"/>
</g>
<defs>
<clipPath id="clip0_54_26">
<rect width="414" height="72" fill="white"/>
</clipPath>
</defs>
</svg>
