<svg width="24" height="25" viewBox="0 0 24 25" fill="none" xmlns="http://www.w3.org/2000/svg">
<mask id="mask0_156_406" style="mask-type:alpha" maskUnits="userSpaceOnUse" x="0" y="0" width="24" height="25">
<rect y="0.5" width="24" height="24" fill="#D9D9D9"/>
</mask>
<g mask="url(#mask0_156_406)">
<path d="M3 21.5V15.5H5V18.1L8.1 15L9.5 16.4L6.4 19.5H9V21.5H3ZM15 21.5V19.5H17.6L14.5 16.4L15.9 15L19 18.1V15.5H21V21.5H15ZM8.1 10L5 6.9V9.5H3V3.5H9V5.5H6.4L9.5 8.6L8.1 10ZM15.9 10L14.5 8.6L17.6 5.5H15V3.5H21V9.5H19V6.9L15.9 10ZM12 14.5C11.45 14.5 10.9792 14.3042 10.5875 13.9125C10.1958 13.5208 10 13.05 10 12.5C10 11.95 10.1958 11.4792 10.5875 11.0875C10.9792 10.6958 11.45 10.5 12 10.5C12.55 10.5 13.0208 10.6958 13.4125 11.0875C13.8042 11.4792 14 11.95 14 12.5C14 13.05 13.8042 13.5208 13.4125 13.9125C13.0208 14.3042 12.55 14.5 12 14.5Z" fill="#00B345"/>
</g>
</svg>
