<svg width="24" height="25" viewBox="0 0 24 25" fill="none" xmlns="http://www.w3.org/2000/svg">
<mask id="mask0_156_423" style="mask-type:alpha" maskUnits="userSpaceOnUse" x="0" y="0" width="24" height="25">
<rect y="0.5" width="24" height="24" fill="#D9D9D9"/>
</mask>
<g mask="url(#mask0_156_423)">
<path d="M6 21.5V3.5H13C14.6667 3.5 16.0833 4.08333 17.25 5.25C18.4167 6.41667 19 7.83333 19 9.5C19 11.1667 18.4167 12.5833 17.25 13.75C16.0833 14.9167 14.6667 15.5 13 15.5H10V21.5H6ZM10 11.5H13.2C13.75 11.5 14.2208 11.3042 14.6125 10.9125C15.0042 10.5208 15.2 10.05 15.2 9.5C15.2 8.95 15.0042 8.47917 14.6125 8.0875C14.2208 7.69583 13.75 7.5 13.2 7.5H10V11.5Z" fill="#00B345"/>
</g>
</svg>
