<svg width="24" height="25" viewBox="0 0 24 25" fill="none" xmlns="http://www.w3.org/2000/svg">
<mask id="mask0_156_431" style="mask-type:alpha" maskUnits="userSpaceOnUse" x="0" y="0" width="24" height="25">
<rect y="0.5" width="24" height="24" fill="#D9D9D9"/>
</mask>
<g mask="url(#mask0_156_431)">
<path d="M12 13.5C11.1667 13.5 10.4583 13.2083 9.875 12.625C9.29167 12.0417 9 11.3333 9 10.5C9 9.66667 9.29167 8.95833 9.875 8.375C10.4583 7.79167 11.1667 7.5 12 7.5C12.8333 7.5 13.5417 7.79167 14.125 8.375C14.7083 8.95833 15 9.66667 15 10.5C15 11.3333 14.7083 12.0417 14.125 12.625C13.5417 13.2083 12.8333 13.5 12 13.5ZM6 23.5V15.775C5.36667 15.075 4.875 14.275 4.525 13.375C4.175 12.475 4 11.5167 4 10.5C4 8.26667 4.775 6.375 6.325 4.825C7.875 3.275 9.76667 2.5 12 2.5C14.2333 2.5 16.125 3.275 17.675 4.825C19.225 6.375 20 8.26667 20 10.5C20 11.5167 19.825 12.475 19.475 13.375C19.125 14.275 18.6333 15.075 18 15.775V23.5L12 21.5L6 23.5ZM12 16.5C13.6667 16.5 15.0833 15.9167 16.25 14.75C17.4167 13.5833 18 12.1667 18 10.5C18 8.83333 17.4167 7.41667 16.25 6.25C15.0833 5.08333 13.6667 4.5 12 4.5C10.3333 4.5 8.91667 5.08333 7.75 6.25C6.58333 7.41667 6 8.83333 6 10.5C6 12.1667 6.58333 13.5833 7.75 14.75C8.91667 15.9167 10.3333 16.5 12 16.5Z" fill="#00B345"/>
</g>
</svg>
