<svg width="24" height="25" viewBox="0 0 24 25" fill="none" xmlns="http://www.w3.org/2000/svg">
<mask id="mask0_156_458" style="mask-type:alpha" maskUnits="userSpaceOnUse" x="0" y="0" width="24" height="25">
<rect y="0.5" width="24" height="24" fill="#D9D9D9"/>
</mask>
<g mask="url(#mask0_156_458)">
<path d="M7 14.5V12.5H17V14.5H7ZM7 18.5V16.5H14V18.5H7ZM5 22.5C4.45 22.5 3.97917 22.3042 3.5875 21.9125C3.19583 21.5208 3 21.05 3 20.5V6.5C3 5.95 3.19583 5.47917 3.5875 5.0875C3.97917 4.69583 4.45 4.5 5 4.5H6V2.5H8V4.5H16V2.5H18V4.5H19C19.55 4.5 20.0208 4.69583 20.4125 5.0875C20.8042 5.47917 21 5.95 21 6.5V20.5C21 21.05 20.8042 21.5208 20.4125 21.9125C20.0208 22.3042 19.55 22.5 19 22.5H5ZM5 20.5H19V10.5H5V20.5Z" fill="#00B345"/>
</g>
</svg>
