<svg width="24" height="25" viewBox="0 0 24 25" fill="none" xmlns="http://www.w3.org/2000/svg">
<mask id="mask0_156_466" style="mask-type:alpha" maskUnits="userSpaceOnUse" x="0" y="0" width="24" height="25">
<rect y="0.5" width="24" height="24" fill="#D9D9D9"/>
</mask>
<g mask="url(#mask0_156_466)">
<path d="M8 20.525V11.5H9.6C9.71667 11.5 9.83333 11.5125 9.95 11.5375C10.0667 11.5625 10.1833 11.5916 10.3 11.625L17.225 14.2C17.4583 14.2833 17.6458 14.4333 17.7875 14.65C17.9292 14.8666 18 15.0916 18 15.325C18 15.675 17.8792 15.9583 17.6375 16.175C17.3958 16.3916 17.1167 16.5 16.8 16.5H14.175C14.0917 16.5 14.0292 16.4958 13.9875 16.4875C13.9458 16.4791 13.8917 16.4583 13.825 16.425L12.225 15.8L11.9 16.775L13.825 17.45C13.8583 17.4666 13.9083 17.4791 13.975 17.4875C14.0417 17.4958 14.1 17.5 14.15 17.5H21C21.5333 17.5 22 17.6916 22.4 18.075C22.8 18.4583 23 18.9333 23 19.5L15.025 22.5L8 20.525ZM2 22.5V11.5H6V22.5H2ZM13.925 11.55L9.675 7.29995L11.1 5.89995L13.925 8.72495L19.6 3.07495L21 4.47495L13.925 11.55Z" fill="#00B345"/>
</g>
</svg>
