<svg width="24" height="25" viewBox="0 0 24 25" fill="none" xmlns="http://www.w3.org/2000/svg">
<mask id="mask0_156_474" style="mask-type:alpha" maskUnits="userSpaceOnUse" x="0" y="0" width="24" height="25">
<rect y="0.5" width="24" height="24" fill="#D9D9D9"/>
</mask>
<g mask="url(#mask0_156_474)">
<path d="M2 21.5V19.5H11V8.325C10.5667 8.175 10.1917 7.94167 9.875 7.625C9.55833 7.30833 9.325 6.93333 9.175 6.5H6L9 13.5C9 14.3333 8.65833 15.0417 7.975 15.625C7.29167 16.2083 6.46667 16.5 5.5 16.5C4.53333 16.5 3.70833 16.2083 3.025 15.625C2.34167 15.0417 2 14.3333 2 13.5L5 6.5H3V4.5H9.175C9.375 3.91667 9.73333 3.4375 10.25 3.0625C10.7667 2.6875 11.35 2.5 12 2.5C12.65 2.5 13.2333 2.6875 13.75 3.0625C14.2667 3.4375 14.625 3.91667 14.825 4.5H21V6.5H19L22 13.5C22 14.3333 21.6583 15.0417 20.975 15.625C20.2917 16.2083 19.4667 16.5 18.5 16.5C17.5333 16.5 16.7083 16.2083 16.025 15.625C15.3417 15.0417 15 14.3333 15 13.5L18 6.5H14.825C14.675 6.93333 14.4417 7.30833 14.125 7.625C13.8083 7.94167 13.4333 8.175 13 8.325V19.5H22V21.5H2ZM16.625 13.5H20.375L18.5 9.15L16.625 13.5ZM3.625 13.5H7.375L5.5 9.15L3.625 13.5ZM12 6.5C12.2833 6.5 12.5208 6.40417 12.7125 6.2125C12.9042 6.02083 13 5.78333 13 5.5C13 5.21667 12.9042 4.97917 12.7125 4.7875C12.5208 4.59583 12.2833 4.5 12 4.5C11.7167 4.5 11.4792 4.59583 11.2875 4.7875C11.0958 4.97917 11 5.21667 11 5.5C11 5.78333 11.0958 6.02083 11.2875 6.2125C11.4792 6.40417 11.7167 6.5 12 6.5Z" fill="#00B345"/>
</g>
</svg>
