<svg width="41" height="41" viewBox="0 0 41 41" fill="none" xmlns="http://www.w3.org/2000/svg">
<mask id="mask0_107_855" style="mask-type:alpha" maskUnits="userSpaceOnUse" x="0" y="0" width="41" height="41">
<rect x="0.5" y="0.400391" width="40" height="40" fill="#CC201F"/>
</mask>
<g mask="url(#mask0_107_855)">
<path d="M3.83398 32.0672V22.0672C3.83398 21.3172 3.98676 20.6367 4.29232 20.0256C4.59787 19.4144 5.00065 18.8728 5.50065 18.4006V13.7339C5.50065 12.345 5.98676 11.1644 6.95898 10.1922C7.93121 9.22 9.11176 8.73389 10.5007 8.73389H17.1673C17.8062 8.73389 18.4034 8.85194 18.959 9.08805C19.5145 9.32416 20.0284 9.65055 20.5007 10.0672C20.9729 9.65055 21.4868 9.32416 22.0423 9.08805C22.5979 8.85194 23.1951 8.73389 23.834 8.73389H30.5007C31.8895 8.73389 33.0701 9.22 34.0423 10.1922C35.0145 11.1644 35.5007 12.345 35.5007 13.7339V18.4006C36.0006 18.8728 36.4034 19.4144 36.709 20.0256C37.0145 20.6367 37.1673 21.3172 37.1673 22.0672V32.0672H33.834V28.7339H7.16732V32.0672H3.83398ZM22.1673 17.0672H32.1673V13.7339C32.1673 13.2617 32.0076 12.8658 31.6882 12.5464C31.3687 12.2269 30.9729 12.0672 30.5007 12.0672H23.834C23.3618 12.0672 22.9659 12.2269 22.6465 12.5464C22.327 12.8658 22.1673 13.2617 22.1673 13.7339V17.0672ZM8.83398 17.0672H18.834V13.7339C18.834 13.2617 18.6743 12.8658 18.3548 12.5464C18.0354 12.2269 17.6395 12.0672 17.1673 12.0672H10.5007C10.0284 12.0672 9.6326 12.2269 9.31315 12.5464C8.99371 12.8658 8.83398 13.2617 8.83398 13.7339V17.0672ZM7.16732 25.4006H33.834V22.0672C33.834 21.595 33.6743 21.1992 33.3548 20.8797C33.0354 20.5603 32.6395 20.4006 32.1673 20.4006H8.83398C8.36176 20.4006 7.96593 20.5603 7.64648 20.8797C7.32704 21.1992 7.16732 21.595 7.16732 22.0672V25.4006Z" fill="white"/>
</g>
</svg>
