<svg width="61" height="61" viewBox="0 0 61 61" fill="none" xmlns="http://www.w3.org/2000/svg">
<g clip-path="url(#clip0_107_747)">
<path fill-rule="evenodd" clip-rule="evenodd" d="M26.2132 56.4102C11.866 56.4102 0.203125 44.7472 0.203125 30.4001C0.203125 16.0529 11.866 4.38989 26.2132 4.38989C33.4356 4.38989 40.17 7.26912 45.1475 12.5394C45.3993 12.8231 45.3714 13.1409 45.2105 13.3719L46.7371 15.3673C47.0281 15.219 47.4063 15.2496 47.6365 15.6136C50.662 19.9568 52.2237 25.0808 52.2237 30.3999C52.2235 44.7472 40.5604 56.4102 26.2132 56.4102ZM26.2132 51.0424C14.8428 51.0424 5.57097 41.7704 5.57097 30.4001C5.57097 19.0297 14.8428 9.75774 26.2132 9.75774C31.6299 9.75774 36.754 11.8561 40.6091 15.6138C40.919 15.9197 40.8707 16.2846 40.6691 16.5302L42.6017 18.9287C42.8965 18.7562 43.304 18.7729 43.5369 19.1273C52.31 32.4777 42.7891 51.0424 26.2132 51.0424Z" fill="#545454"/>
<path fill-rule="evenodd" clip-rule="evenodd" d="M26.8976 43.7711C26.6049 43.7711 26.3608 43.5759 26.2633 43.3319C26.2145 43.2343 22.0177 32.4008 15.5273 28.3016C14.2585 27.5208 13.2827 26.6912 13.673 24.8367C14.0633 23.0312 15.2834 22.0064 17.4793 21.5183C21.3832 20.6887 25.5799 26.7399 27.1416 29.2288C32.6071 21.2745 43.5382 8.78164 59.4469 7.31767C60.2143 7.22771 60.4981 8.3653 59.7885 8.68406C59.5444 8.78164 36.8037 19.1762 27.5807 43.3808C27.4344 43.6246 27.1903 43.7711 26.8976 43.7711Z" fill="#00B42C"/>
</g>
<defs>
<clipPath id="clip0_107_747">
<rect width="60" height="60" fill="white" transform="translate(0.199219 0.400024)"/>
</clipPath>
</defs>
</svg>
