<svg width="24" height="25" viewBox="0 0 24 25" fill="none" xmlns="http://www.w3.org/2000/svg">
<mask id="mask0_156_363" style="mask-type:alpha" maskUnits="userSpaceOnUse" x="0" y="0" width="24" height="25">
<rect y="0.5" width="24" height="24" fill="#D9D9D9"/>
</mask>
<g mask="url(#mask0_156_363)">
<path d="M9 13.5H11V10.75H13V13.5H15V8.75L12 6.75L9 8.75V13.5ZM12 22.5C9.31667 20.2167 7.3125 18.0958 5.9875 16.1375C4.6625 14.1792 4 12.3667 4 10.7C4 8.2 4.80417 6.20833 6.4125 4.725C8.02083 3.24167 9.88333 2.5 12 2.5C14.1167 2.5 15.9792 3.24167 17.5875 4.725C19.1958 6.20833 20 8.2 20 10.7C20 12.3667 19.3375 14.1792 18.0125 16.1375C16.6875 18.0958 14.6833 20.2167 12 22.5Z" fill="#00B345"/>
</g>
</svg>
