<svg width="24" height="25" viewBox="0 0 24 25" fill="none" xmlns="http://www.w3.org/2000/svg">
<mask id="mask0_156_372" style="mask-type:alpha" maskUnits="userSpaceOnUse" x="0" y="0" width="24" height="25">
<rect y="0.5" width="24" height="24" fill="#D9D9D9"/>
</mask>
<g mask="url(#mask0_156_372)">
<path d="M12 22.5C10.6167 22.5 9.31667 22.2375 8.1 21.7125C6.88333 21.1875 5.825 20.475 4.925 19.575C4.025 18.675 3.3125 17.6167 2.7875 16.4C2.2625 15.1833 2 13.8833 2 12.5C2 11.1167 2.2625 9.81667 2.7875 8.6C3.3125 7.38333 4.025 6.325 4.925 5.425C5.825 4.525 6.88333 3.8125 8.1 3.2875C9.31667 2.7625 10.6167 2.5 12 2.5C14.5333 2.5 16.7292 3.31667 18.5875 4.95C20.4458 6.58333 21.55 8.61667 21.9 11.05C21.5667 10.8833 21.2208 10.7542 20.8625 10.6625C20.5042 10.5708 20.1333 10.5167 19.75 10.5C19.4333 9.28333 18.8625 8.2 18.0375 7.25C17.2125 6.3 16.2 5.58333 15 5.1V5.5C15 6.05 14.8042 6.52083 14.4125 6.9125C14.0208 7.30417 13.55 7.5 13 7.5H11V9.5C11 9.78333 10.9042 10.0208 10.7125 10.2125C10.5208 10.4042 10.2833 10.5 10 10.5H8V12.5H14C14.1833 12.5 14.3542 12.5458 14.5125 12.6375C14.6708 12.7292 14.7917 12.8583 14.875 13.025C14.5917 13.475 14.375 13.95 14.225 14.45C14.075 14.95 14 15.4667 14 16C14 17.05 14.2708 18.025 14.8125 18.925C15.3542 19.825 15.9083 20.6667 16.475 21.45C15.7917 21.7833 15.075 22.0417 14.325 22.225C13.575 22.4083 12.8 22.5 12 22.5ZM11 20.45V18.5C10.45 18.5 9.97917 18.3042 9.5875 17.9125C9.19583 17.5208 9 17.05 9 16.5V15.5L4.2 10.7C4.15 11 4.10417 11.3 4.0625 11.6C4.02083 11.9 4 12.2 4 12.5C4 14.5167 4.6625 16.2833 5.9875 17.8C7.3125 19.3167 8.98333 20.2 11 20.45ZM19.5 22.5C19.3833 22.5 19.2833 22.4667 19.2 22.4C19.1167 22.3333 19.0583 22.25 19.025 22.15C18.8417 21.5667 18.5833 21.025 18.25 20.525C17.9167 20.025 17.5583 19.5333 17.175 19.05C16.825 18.6167 16.5417 18.1417 16.325 17.625C16.1083 17.1083 16 16.5667 16 16C16 15.0333 16.3417 14.2083 17.025 13.525C17.7083 12.8417 18.5333 12.5 19.5 12.5C20.4667 12.5 21.2917 12.8417 21.975 13.525C22.6583 14.2083 23 15.0333 23 16C23 16.5667 22.8875 17.1042 22.6625 17.6125C22.4375 18.1208 22.1583 18.6 21.825 19.05C21.4417 19.5333 21.0833 20.025 20.75 20.525C20.4167 21.025 20.1583 21.5667 19.975 22.15C19.9417 22.25 19.8833 22.3333 19.8 22.4C19.7167 22.4667 19.6167 22.5 19.5 22.5ZM19.5 19.675C19.6667 19.3917 19.85 19.1292 20.05 18.8875C20.25 18.6458 20.4417 18.4 20.625 18.15C20.8583 17.8333 21.0625 17.4958 21.2375 17.1375C21.4125 16.7792 21.5 16.4 21.5 16C21.5 15.45 21.3042 14.9792 20.9125 14.5875C20.5208 14.1958 20.05 14 19.5 14C18.95 14 18.4792 14.1958 18.0875 14.5875C17.6958 14.9792 17.5 15.45 17.5 16C17.5 16.4 17.5875 16.7792 17.7625 17.1375C17.9375 17.4958 18.1417 17.8333 18.375 18.15C18.575 18.4 18.7708 18.6458 18.9625 18.8875C19.1542 19.1292 19.3333 19.3917 19.5 19.675ZM19.5 17.25C19.15 17.25 18.8542 17.1292 18.6125 16.8875C18.3708 16.6458 18.25 16.35 18.25 16C18.25 15.65 18.3708 15.3542 18.6125 15.1125C18.8542 14.8708 19.15 14.75 19.5 14.75C19.85 14.75 20.1458 14.8708 20.3875 15.1125C20.6292 15.3542 20.75 15.65 20.75 16C20.75 16.35 20.6292 16.6458 20.3875 16.8875C20.1458 17.1292 19.85 17.25 19.5 17.25Z" fill="#00B345"/>
</g>
</svg>
