<svg width="80" height="80" viewBox="0 0 80 80" fill="none" xmlns="http://www.w3.org/2000/svg">
<g clip-path="url(#clip0_82_215)">
<path d="M77.6544 78.2019C75.3644 76.4471 72.887 74.9512 70.2673 73.7421L60.9027 69.4183C60.4395 70.7385 59.2285 73.6926 56.8353 76.6632C55.824 77.9187 54.7205 79.0314 53.5352 80H80.0006L77.6544 78.2019Z" fill="#00B345"/>
<path d="M23.1653 76.6632C20.7721 73.6926 19.5612 70.7385 19.0979 69.4183L9.73328 73.7421C7.11365 74.9512 4.63623 76.4471 2.34619 78.2019L0 80H26.4655C25.2808 79.0314 24.1766 77.9193 23.1653 76.6632Z" fill="#00B345"/>
<path d="M55.259 65.3119V64.7784C51.1288 68.2507 45.8053 70.3455 40.0015 70.3455C34.1976 70.3455 28.8741 68.2507 24.7445 64.7784V65.3119C24.7445 66.2238 24.2098 67.0593 23.3828 67.4408C23.3828 67.4408 26.9998 80 40.0021 80C53.0038 80 56.6207 67.4408 56.6207 67.4408C55.7931 67.0593 55.259 66.2238 55.259 65.3119Z" fill="#00B345"/>
<path d="M40 65.6555C50.5115 65.6555 59.0625 57.1008 59.0625 46.5851V38.1427H20.9375V46.5851C20.9375 57.1008 29.4891 65.6555 40 65.6555Z" fill="#00B345"/>
<path d="M15.9928 33.4528H64.0055C65.3 33.4528 66.3492 32.403 66.3492 31.1084C66.3492 29.8132 65.3 28.7634 64.0055 28.7634H62.0365V26.3391C62.0365 18.7817 58.2157 12.1021 52.4058 8.12805V18.0212C52.4058 19.3164 51.3566 20.3662 50.062 20.3662C48.7681 20.3662 47.7183 19.3164 47.7183 18.0212V6.63696C47.7183 6.32507 47.7805 6.02722 47.8916 5.755C46.1381 5.07996 44.2777 4.6228 42.3429 4.41711V20.8972C42.3429 22.1924 41.2931 23.2422 39.9991 23.2422C38.7046 23.2422 37.6554 22.1924 37.6554 20.8972V4.41711C35.7206 4.62219 33.8608 5.07996 32.1079 5.75439C32.2184 6.02722 32.2806 6.32446 32.2806 6.63696V18.0212C32.2806 19.3164 31.2314 20.3662 29.9369 20.3662C28.6423 20.3662 27.5931 19.3164 27.5931 18.0212V8.12683C21.7826 12.1008 17.9612 18.7817 17.9612 26.3391V28.7634H15.9922C14.6982 28.7634 13.6484 29.8132 13.6484 31.1084C13.6484 32.403 14.6982 33.4528 15.9928 33.4528Z" fill="#00B345"/>
<path d="M52.4048 6.63696C52.4048 5.3418 51.3556 4.29199 50.061 4.29199C49.079 4.29199 48.2385 4.89746 47.8906 5.75562C49.4934 6.37268 51.0071 7.17163 52.4048 8.12805V6.63696Z" fill="#00B345"/>
<path d="M29.9375 4.29199C28.6429 4.29199 27.5938 5.3418 27.5938 6.63696V8.12683C28.9915 7.17041 30.5051 6.37146 32.1079 5.75439C31.7594 4.89746 30.9196 4.29199 29.9375 4.29199Z" fill="#00B345"/>
<path d="M42.3438 4.41711V2.34497C42.3438 1.0498 41.2946 0 40 0C38.7054 0 37.6562 1.0498 37.6562 2.34497V4.41711C38.4265 4.33472 39.2084 4.29199 40 4.29199C40.7916 4.29199 41.5735 4.33472 42.3438 4.41711Z" fill="#00B345"/>
</g>
<defs>
<clipPath id="clip0_82_215">
<rect width="80" height="80" fill="white"/>
</clipPath>
</defs>
</svg>
